<svg width="367" height="370" viewBox="0 0 367 370" fill="none" xmlns="http://www.w3.org/2000/svg">
<ellipse cx="183.5" cy="185" rx="183.5" ry="185" fill="url(#paint0_linear_248_102)"/>
<path d="M18.153 135.049C18.6574 133.306 20.2985 132.001 22.0097 131.018C23.721 130.035 25.6041 129.245 27.0655 127.987C28.5265 126.729 29.5092 124.817 28.8309 123.12C28.0065 121.057 25.2591 120.232 22.8575 119.676C44.8387 117.595 66.9267 116.51 89.0343 116.425C89.5324 115.83 90.2312 115.389 91.0308 115.165C91.8304 114.941 92.69 114.945 93.4867 115.177C94.2835 115.409 94.9767 115.857 95.4673 116.456C95.9579 117.056 96.2208 117.776 96.2185 118.515V181.091H88.2352V142.652C69.2731 142.692 50.3107 142.733 31.3483 142.773C28.2782 142.78 25.0837 142.763 22.3235 141.578C19.5629 140.394 17.3948 137.67 18.153 135.049Z" fill="#CCCCCC"/>
<path d="M120.296 203.781C110.569 203.571 100.141 208.486 97.3728 216.896L150.175 214.958C149.177 214.336 148.174 213.721 147.166 213.114C139.065 208.256 130.023 203.991 120.296 203.781Z" fill="#F2F2F2"/>
<path d="M42.0352 230.532C49.0569 234.908 55.9095 239.579 63.7333 242.617C83.1063 250.14 105.408 246.632 125.792 241.742C146.176 236.852 166.984 230.64 187.891 233.16C199.747 234.589 210.939 238.771 222.383 241.909C233.826 245.047 246.139 247.148 257.685 244.331C269.23 241.513 279.644 232.581 279.946 221.799C192.783 207.268 111.974 206.837 42.0352 230.532Z" fill="#F2F2F2"/>
<path d="M159.079 158.026H104.498C103.72 158.026 102.973 158.305 102.423 158.802C101.872 159.298 101.563 159.971 101.562 160.673V178.604C101.563 179.306 101.872 179.979 102.423 180.475C102.973 180.972 103.72 181.251 104.498 181.251H159.079C159.858 181.251 160.604 180.972 161.155 180.475C161.705 179.979 162.015 179.306 162.016 178.604V160.673C162.015 159.971 161.705 159.298 161.155 158.802C160.604 158.305 159.858 158.026 159.079 158.026V158.026Z" fill="#E6E6E6"/>
<path d="M107.006 158.026H105.504V181.251H107.006V158.026Z" fill="#CCCCCC"/>
<path d="M113.39 158.026H111.888V181.251H113.39V158.026Z" fill="#CCCCCC"/>
<path d="M119.773 158.026H118.271V181.251H119.773V158.026Z" fill="#CCCCCC"/>
<path d="M126.156 158.026H124.654V181.251H126.156V158.026Z" fill="#CCCCCC"/>
<path d="M132.54 158.026H131.038V181.251H132.54V158.026Z" fill="#CCCCCC"/>
<path d="M138.923 158.026H137.421V181.251H138.923V158.026Z" fill="#CCCCCC"/>
<path d="M145.306 158.026H143.804V181.251H145.306V158.026Z" fill="#CCCCCC"/>
<path d="M151.689 158.026H150.187V181.251H151.689V158.026Z" fill="#CCCCCC"/>
<path d="M158.073 158.026H156.571V181.251H158.073V158.026Z" fill="#CCCCCC"/>
<path d="M293.128 158.026H238.547C237.769 158.026 237.022 158.305 236.471 158.802C235.921 159.298 235.611 159.971 235.611 160.673V178.604C235.611 179.306 235.921 179.979 236.471 180.475C237.022 180.972 237.769 181.251 238.547 181.251H293.128C293.907 181.251 294.653 180.972 295.204 180.475C295.754 179.979 296.064 179.306 296.064 178.604V160.673C296.064 159.971 295.754 159.298 295.204 158.802C294.653 158.305 293.907 158.026 293.128 158.026V158.026Z" fill="#E6E6E6"/>
<path d="M241.056 158.026H239.554V181.251H241.056V158.026Z" fill="#CCCCCC"/>
<path d="M247.438 158.026H245.937V181.251H247.438V158.026Z" fill="#CCCCCC"/>
<path d="M253.822 158.026H252.32V181.251H253.822V158.026Z" fill="#CCCCCC"/>
<path d="M260.205 158.026H258.703V181.251H260.205V158.026Z" fill="#CCCCCC"/>
<path d="M266.589 158.026H265.087V181.251H266.589V158.026Z" fill="#CCCCCC"/>
<path d="M272.972 158.026H271.47V181.251H272.972V158.026Z" fill="#CCCCCC"/>
<path d="M279.355 158.026H277.853V181.251H279.355V158.026Z" fill="#CCCCCC"/>
<path d="M285.739 158.026H284.237V181.251H285.739V158.026Z" fill="#CCCCCC"/>
<path d="M292.122 158.026H290.62V181.251H292.122V158.026Z" fill="#CCCCCC"/>
<path d="M232.299 158.026H177.718C176.94 158.026 176.193 158.305 175.643 158.802C175.092 159.298 174.782 159.971 174.782 160.673V178.604C174.782 179.306 175.092 179.979 175.643 180.475C176.193 180.972 176.94 181.251 177.718 181.251H232.299C233.078 181.251 233.824 180.972 234.375 180.475C234.925 179.979 235.235 179.306 235.235 178.604V160.673C235.235 159.971 234.925 159.298 234.375 158.802C233.824 158.305 233.078 158.026 232.299 158.026V158.026Z" fill="#E6E6E6"/>
<path d="M180.227 158.026H178.725V181.251H180.227V158.026Z" fill="#CCCCCC"/>
<path d="M186.61 158.026H185.108V181.251H186.61V158.026Z" fill="#CCCCCC"/>
<path d="M192.993 158.026H191.491V181.251H192.993V158.026Z" fill="#CCCCCC"/>
<path d="M199.376 158.026H197.875V181.251H199.376V158.026Z" fill="#CCCCCC"/>
<path d="M205.76 158.026H204.258V181.251H205.76V158.026Z" fill="#CCCCCC"/>
<path d="M212.143 158.026H210.641V181.251H212.143V158.026Z" fill="#CCCCCC"/>
<path d="M218.526 158.026H217.024V181.251H218.526V158.026Z" fill="#CCCCCC"/>
<path d="M224.909 158.026H223.407V181.251H224.909V158.026Z" fill="#CCCCCC"/>
<path d="M231.293 158.026H229.791V181.251H231.293V158.026Z" fill="#CCCCCC"/>
<path d="M281.112 159.719H226.532C225.753 159.719 225.006 159.998 224.456 160.495C223.905 160.991 223.596 161.664 223.595 162.366V180.297C223.596 180.999 223.905 181.672 224.456 182.168C225.006 182.665 225.753 182.944 226.532 182.944H281.112C281.891 182.944 282.638 182.665 283.188 182.168C283.739 181.672 284.048 180.999 284.049 180.297V162.366C284.048 161.664 283.739 160.991 283.188 160.495C282.638 159.998 281.891 159.719 281.112 159.719Z" fill="#E84D3D"/>
<path d="M229.04 159.719H227.538V182.944H229.04V159.719Z" fill="#3F3D56"/>
<path d="M235.423 159.719H233.921V182.944H235.423V159.719Z" fill="#3F3D56"/>
<path d="M241.806 159.719H240.304V182.944H241.806V159.719Z" fill="#3F3D56"/>
<path d="M248.19 159.719H246.688V182.944H248.19V159.719Z" fill="#3F3D56"/>
<path d="M254.573 159.719H253.071V182.944H254.573V159.719Z" fill="#3F3D56"/>
<path d="M260.956 159.719H259.454V182.944H260.956V159.719Z" fill="#3F3D56"/>
<path d="M267.34 159.719H265.838V182.944H267.34V159.719Z" fill="#3F3D56"/>
<path d="M273.723 159.719H272.221V182.944H273.723V159.719Z" fill="#3F3D56"/>
<path d="M280.106 159.719H278.604V182.944H280.106V159.719Z" fill="#3F3D56"/>
<path d="M212.398 159.719H157.817C157.039 159.719 156.292 159.998 155.741 160.495C155.191 160.991 154.881 161.664 154.881 162.366V180.297C154.881 180.999 155.191 181.672 155.741 182.168C156.292 182.665 157.039 182.944 157.817 182.944H212.398C213.177 182.944 213.923 182.665 214.474 182.168C215.024 181.672 215.334 180.999 215.334 180.297V162.366C215.334 161.664 215.024 160.991 214.474 160.495C213.923 159.998 213.177 159.719 212.398 159.719Z" fill="#E84D3D"/>
<path d="M160.326 159.719H158.824V182.944H160.326V159.719Z" fill="#3F3D56"/>
<path d="M166.709 159.719H165.207V182.944H166.709V159.719Z" fill="#3F3D56"/>
<path d="M173.093 159.719H171.591V182.944H173.093V159.719Z" fill="#3F3D56"/>
<path d="M179.475 159.719H177.973V182.944H179.475V159.719Z" fill="#3F3D56"/>
<path d="M185.859 159.719H184.357V182.944H185.859V159.719Z" fill="#3F3D56"/>
<path d="M192.242 159.719H190.74V182.944H192.242V159.719Z" fill="#3F3D56"/>
<path d="M198.625 159.719H197.124V182.944H198.625V159.719Z" fill="#3F3D56"/>
<path d="M205.009 159.719H203.507V182.944H205.009V159.719Z" fill="#3F3D56"/>
<path d="M211.392 159.719H209.89V182.944H211.392V159.719Z" fill="#3F3D56"/>
<path d="M139.178 159.719H84.5974C83.8188 159.719 83.0723 159.998 82.5217 160.495C81.9712 160.991 81.6616 161.664 81.6611 162.366V180.297C81.6616 180.999 81.9712 181.672 82.5217 182.168C83.0723 182.665 83.8188 182.944 84.5974 182.944H139.178C139.957 182.944 140.703 182.665 141.254 182.168C141.805 181.672 142.114 180.999 142.115 180.297V162.366C142.114 161.664 141.805 160.991 141.254 160.495C140.703 159.998 139.957 159.719 139.178 159.719V159.719Z" fill="#E84D3D"/>
<path d="M87.1057 159.719H85.6038V182.944H87.1057V159.719Z" fill="#3F3D56"/>
<path d="M93.489 159.719H91.9871V182.944H93.489V159.719Z" fill="#3F3D56"/>
<path d="M99.8723 159.719H98.3704V182.944H99.8723V159.719Z" fill="#3F3D56"/>
<path d="M106.256 159.719H104.754V182.944H106.256V159.719Z" fill="#3F3D56"/>
<path d="M112.639 159.719H111.137V182.944H112.639V159.719Z" fill="#3F3D56"/>
<path d="M119.022 159.719H117.52V182.944H119.022V159.719Z" fill="#3F3D56"/>
<path d="M125.405 159.719H123.903V182.944H125.405V159.719Z" fill="#3F3D56"/>
<path d="M131.789 159.719H130.287V182.944H131.789V159.719Z" fill="#3F3D56"/>
<path d="M138.172 159.719H136.67V182.944H138.172V159.719Z" fill="#3F3D56"/>
<path d="M329.166 184.315C329.076 184.023 328.959 183.737 328.818 183.461L322.117 170.462C321.625 169.508 320.841 168.701 319.858 168.135C318.875 167.569 317.732 167.269 316.566 167.269H289.08C287.914 167.269 286.771 167.569 285.788 168.135C284.805 168.701 284.021 169.508 283.529 170.462L278.02 181.15H120.934L115.599 170.8C115.107 169.846 114.323 169.039 113.34 168.473C112.356 167.908 111.214 167.607 110.048 167.607H82.562C81.507 167.608 80.4701 167.854 79.5523 168.323L74.9309 160.882C74.6258 160.391 74.1485 160.005 73.5739 159.784C72.9992 159.564 72.3597 159.521 71.7553 159.663C71.151 159.805 70.6161 160.124 70.2342 160.57C69.8524 161.016 69.6453 161.563 69.6453 162.126V220.564C69.6453 221.435 69.8355 222.297 70.205 223.102C70.5745 223.906 71.1161 224.637 71.7989 225.253C72.4817 225.868 73.2923 226.357 74.1844 226.69C75.0766 227.023 76.0327 227.194 76.9983 227.194H287.338C288.317 227.194 289.287 227.018 290.19 226.675C291.093 226.333 291.91 225.831 292.595 225.2L328.153 192.415C329.308 191.365 330.037 189.994 330.221 188.524C330.404 187.054 330.033 185.571 329.166 184.315V184.315Z" fill="#3F3D56"/>
<path d="M292.159 180.303H288.705C287.969 180.303 287.262 180.038 286.741 179.569C286.22 179.099 285.927 178.462 285.926 177.797V174.345C285.927 173.681 286.22 173.044 286.741 172.574C287.262 172.104 287.969 171.84 288.705 171.839H292.159C292.896 171.84 293.602 172.104 294.123 172.574C294.644 173.044 294.937 173.681 294.938 174.345V177.797C294.937 178.462 294.644 179.099 294.123 179.569C293.602 180.038 292.896 180.303 292.159 180.303Z" fill="white"/>
<path d="M304.55 180.303H301.097C300.36 180.303 299.653 180.038 299.132 179.569C298.611 179.099 298.318 178.462 298.317 177.797V174.345C298.318 173.681 298.611 173.044 299.132 172.574C299.653 172.104 300.36 171.84 301.097 171.839H304.55C305.287 171.84 305.993 172.104 306.514 172.574C307.035 173.044 307.328 173.681 307.329 174.345V177.797C307.328 178.462 307.035 179.099 306.514 179.569C305.993 180.038 305.287 180.303 304.55 180.303V180.303Z" fill="white"/>
<path d="M316.941 180.303H313.488C312.751 180.303 312.044 180.038 311.523 179.569C311.002 179.099 310.709 178.462 310.708 177.797V174.345C310.709 173.681 311.002 173.044 311.523 172.574C312.044 172.104 312.751 171.84 313.488 171.839H316.941C317.678 171.84 318.384 172.104 318.905 172.574C319.426 173.044 319.719 173.681 319.72 174.345V177.797C319.719 178.462 319.426 179.099 318.905 179.569C318.384 180.038 317.678 180.303 316.941 180.303Z" fill="white"/>
<path d="M85.6408 180.642H82.1873C81.4505 180.641 80.7441 180.377 80.2231 179.907C79.7021 179.437 79.409 178.8 79.4082 178.136V174.684C79.409 174.019 79.7021 173.382 80.2231 172.913C80.7441 172.443 81.4505 172.179 82.1873 172.178H85.6408C86.3776 172.179 87.084 172.443 87.605 172.913C88.126 173.382 88.4191 174.019 88.4199 174.684V178.136C88.4191 178.8 88.126 179.437 87.605 179.907C87.084 180.377 86.3776 180.641 85.6408 180.642V180.642Z" fill="white"/>
<path d="M98.0319 180.642H94.5784C93.8416 180.641 93.1352 180.377 92.6142 179.907C92.0932 179.437 91.8002 178.8 91.7993 178.136V174.684C91.8002 174.019 92.0932 173.382 92.6142 172.913C93.1352 172.443 93.8416 172.179 94.5784 172.178H98.0319C98.7687 172.179 99.4751 172.443 99.9961 172.913C100.517 173.382 100.81 174.019 100.811 174.684V178.136C100.81 178.8 100.517 179.437 99.9961 179.907C99.4751 180.377 98.7687 180.641 98.0319 180.642V180.642Z" fill="white"/>
<path d="M110.423 180.642H106.969C106.232 180.641 105.526 180.377 105.005 179.907C104.484 179.437 104.191 178.8 104.19 178.136V174.684C104.191 174.019 104.484 173.382 105.005 172.913C105.526 172.443 106.232 172.179 106.969 172.178H110.423C111.16 172.179 111.866 172.443 112.387 172.913C112.908 173.382 113.201 174.019 113.202 174.684V178.136C113.201 178.8 112.908 179.437 112.387 179.907C111.866 180.377 111.16 180.641 110.423 180.642V180.642Z" fill="white"/>
<path d="M64.2098 216.298C54.4826 216.088 44.0546 221.002 41.2866 229.413L94.0893 227.475C93.0907 226.852 92.0876 226.238 91.08 225.631C82.9784 220.772 73.937 216.508 64.2098 216.298Z" fill="#E84D3D"/>
<path d="M94.0891 227.475C101.111 231.851 107.963 236.522 115.787 239.56C135.16 247.083 157.462 243.574 177.846 238.685C198.23 233.795 219.038 227.582 239.945 230.103C251.801 231.532 262.993 235.714 274.437 238.852C285.88 241.989 298.193 244.09 309.739 241.273C321.284 238.456 331.698 229.523 332 218.742C244.837 204.211 164.028 203.779 94.0891 227.475Z" fill="#E84D3D"/>
<defs>
<linearGradient id="paint0_linear_248_102" x1="261.719" y1="13.1751" x2="-182.251" y2="336.33" gradientUnits="userSpaceOnUse">
<stop stop-color="#E84D3D"/>
<stop offset="1" stop-color="#5944D7"/>
</linearGradient>
</defs>
</svg>
