<svg width="567" height="399" viewBox="0 0 567 399" fill="none" xmlns="http://www.w3.org/2000/svg">
<circle cx="325.5" cy="199.5" r="199.5" fill="#D9D9D9"/>
<path d="M0.275978 131.362C1.18681 127.677 4.15016 124.921 7.24022 122.844C10.3303 120.767 13.7308 119.098 16.3697 116.44C19.0078 113.783 20.7823 109.742 19.5575 106.156C18.0688 101.797 13.1078 100.055 8.77118 98.8804C48.4633 94.4833 88.3483 92.1903 128.269 92.0106C129.168 90.7539 130.43 89.8223 131.874 89.3488C133.318 88.8753 134.87 88.8841 136.309 89.374C137.747 89.8639 138.999 90.8098 139.885 92.0766C140.771 93.3434 141.246 94.8663 141.241 96.4278V228.641H126.826V147.425C92.5852 147.51 58.3443 147.596 24.1033 147.681C18.5594 147.695 12.7911 147.659 7.8069 145.157C2.82195 142.655 -1.09309 136.898 0.275978 131.362Z" fill="#CCCCCC"/>
<path d="M184.719 276.583C167.154 276.139 148.324 286.523 143.326 304.293L238.673 300.198C236.87 298.883 235.059 297.585 233.239 296.303C218.61 286.037 202.284 277.026 184.719 276.583Z" fill="#F2F2F2"/>
<path d="M43.4008 333.104C56.0802 342.351 68.4541 352.219 82.5818 358.638C117.564 374.533 157.835 367.12 194.643 356.789C231.452 346.458 269.025 333.332 306.778 338.657C328.186 341.676 348.397 350.512 369.061 357.142C389.724 363.771 411.958 368.211 432.806 362.259C453.654 356.306 472.459 337.432 473.004 314.653C315.612 283.951 169.691 283.039 43.4008 333.104Z" fill="#F2F2F2"/>
<path d="M254.751 179.908H156.193C154.787 179.909 153.439 180.499 152.444 181.547C151.45 182.596 150.891 184.019 150.89 185.502V223.386C150.891 224.87 151.45 226.292 152.444 227.341C153.439 228.39 154.787 228.979 156.193 228.98H254.751C256.157 228.979 257.505 228.39 258.499 227.341C259.493 226.292 260.052 224.87 260.053 223.386V185.502C260.052 184.019 259.493 182.596 258.499 181.547C257.505 180.499 256.157 179.909 254.751 179.908V179.908Z" fill="#E6E6E6"/>
<path d="M160.722 179.908H158.01V228.98H160.722V179.908Z" fill="#CCCCCC"/>
<path d="M172.248 179.908H169.536V228.98H172.248V179.908Z" fill="#CCCCCC"/>
<path d="M183.775 179.908H181.063V228.98H183.775V179.908Z" fill="#CCCCCC"/>
<path d="M195.301 179.908H192.589V228.98H195.301V179.908Z" fill="#CCCCCC"/>
<path d="M206.828 179.908H204.116V228.98H206.828V179.908Z" fill="#CCCCCC"/>
<path d="M218.354 179.908H215.642V228.98H218.354V179.908Z" fill="#CCCCCC"/>
<path d="M229.881 179.908H227.169V228.98H229.881V179.908Z" fill="#CCCCCC"/>
<path d="M241.407 179.908H238.695V228.98H241.407V179.908Z" fill="#CCCCCC"/>
<path d="M252.934 179.908H250.222V228.98H252.934V179.908Z" fill="#CCCCCC"/>
<path d="M496.808 179.908H398.249C396.843 179.909 395.495 180.499 394.501 181.547C393.507 182.596 392.948 184.019 392.947 185.502V223.386C392.948 224.87 393.507 226.292 394.501 227.341C395.495 228.39 396.843 228.979 398.249 228.98H496.808C498.214 228.979 499.562 228.39 500.556 227.341C501.55 226.292 502.109 224.87 502.11 223.386V185.502C502.109 184.019 501.55 182.596 500.556 181.547C499.562 180.499 498.214 179.909 496.808 179.908V179.908Z" fill="#E6E6E6"/>
<path d="M402.779 179.908H400.066V228.98H402.779V179.908Z" fill="#CCCCCC"/>
<path d="M414.305 179.908H411.593V228.98H414.305V179.908Z" fill="#CCCCCC"/>
<path d="M425.832 179.908H423.119V228.98H425.832V179.908Z" fill="#CCCCCC"/>
<path d="M437.358 179.908H434.646V228.98H437.358V179.908Z" fill="#CCCCCC"/>
<path d="M448.885 179.908H446.172V228.98H448.885V179.908Z" fill="#CCCCCC"/>
<path d="M460.411 179.908H457.699V228.98H460.411V179.908Z" fill="#CCCCCC"/>
<path d="M471.938 179.908H469.226V228.98H471.938V179.908Z" fill="#CCCCCC"/>
<path d="M483.464 179.908H480.752V228.98H483.464V179.908Z" fill="#CCCCCC"/>
<path d="M494.991 179.908H492.279V228.98H494.991V179.908Z" fill="#CCCCCC"/>
<path d="M386.967 179.908H288.408C287.003 179.909 285.654 180.499 284.66 181.547C283.666 182.596 283.107 184.019 283.106 185.502V223.386C283.107 224.87 283.666 226.292 284.66 227.341C285.654 228.39 287.002 228.979 288.408 228.98H386.967C388.373 228.979 389.721 228.39 390.715 227.341C391.709 226.292 392.268 224.87 392.269 223.386V185.502C392.268 184.019 391.709 182.596 390.715 181.547C389.721 180.499 388.373 179.909 386.967 179.908V179.908Z" fill="#E6E6E6"/>
<path d="M292.938 179.908H290.226V228.98H292.938V179.908Z" fill="#CCCCCC"/>
<path d="M304.464 179.908H301.752V228.98H304.464V179.908Z" fill="#CCCCCC"/>
<path d="M315.991 179.908H313.279V228.98H315.991V179.908Z" fill="#CCCCCC"/>
<path d="M327.517 179.908H324.805V228.98H327.517V179.908Z" fill="#CCCCCC"/>
<path d="M339.044 179.908H336.332V228.98H339.044V179.908Z" fill="#CCCCCC"/>
<path d="M350.57 179.908H347.858V228.98H350.57V179.908Z" fill="#CCCCCC"/>
<path d="M362.097 179.908H359.385V228.98H362.097V179.908Z" fill="#CCCCCC"/>
<path d="M373.623 179.908H370.911V228.98H373.623V179.908Z" fill="#CCCCCC"/>
<path d="M385.15 179.908H382.438V228.98H385.15V179.908Z" fill="#CCCCCC"/>
<path d="M475.111 183.485H376.552C375.146 183.486 373.798 184.075 372.804 185.124C371.81 186.173 371.251 187.595 371.25 189.079V226.963C371.251 228.446 371.81 229.869 372.804 230.917C373.798 231.966 375.146 232.556 376.552 232.557H475.111C476.517 232.556 477.865 231.966 478.859 230.917C479.853 229.869 480.412 228.446 480.413 226.963V189.079C480.412 187.595 479.853 186.173 478.859 185.124C477.865 184.075 476.517 183.486 475.111 183.485Z" fill="#E84D3D"/>
<path d="M381.082 183.485H378.369V232.557H381.082V183.485Z" fill="#3F3D56"/>
<path d="M392.608 183.485H389.896V232.557H392.608V183.485Z" fill="#3F3D56"/>
<path d="M404.135 183.485H401.423V232.557H404.135V183.485Z" fill="#3F3D56"/>
<path d="M415.661 183.485H412.949V232.557H415.661V183.485Z" fill="#3F3D56"/>
<path d="M427.188 183.485H424.476V232.557H427.188V183.485Z" fill="#3F3D56"/>
<path d="M438.714 183.485H436.002V232.557H438.714V183.485Z" fill="#3F3D56"/>
<path d="M450.241 183.485H447.528V232.557H450.241V183.485Z" fill="#3F3D56"/>
<path d="M461.767 183.485H459.055V232.557H461.767V183.485Z" fill="#3F3D56"/>
<path d="M473.294 183.485H470.582V232.557H473.294V183.485Z" fill="#3F3D56"/>
<path d="M351.031 183.485H252.473C251.067 183.486 249.719 184.075 248.725 185.124C247.73 186.173 247.172 187.595 247.171 189.079V226.963C247.172 228.446 247.73 229.869 248.725 230.917C249.719 231.966 251.067 232.556 252.473 232.557H351.031C352.437 232.556 353.785 231.966 354.779 230.917C355.774 229.869 356.333 228.446 356.333 226.963V189.079C356.333 187.595 355.774 186.173 354.779 185.124C353.785 184.075 352.437 183.486 351.031 183.485Z" fill="#E84D3D"/>
<path d="M257.002 183.485H254.29V232.557H257.002V183.485Z" fill="#3F3D56"/>
<path d="M268.529 183.485H265.817V232.557H268.529V183.485Z" fill="#3F3D56"/>
<path d="M280.055 183.485H277.343V232.557H280.055V183.485Z" fill="#3F3D56"/>
<path d="M291.582 183.485H288.87V232.557H291.582V183.485Z" fill="#3F3D56"/>
<path d="M303.108 183.485H300.396V232.557H303.108V183.485Z" fill="#3F3D56"/>
<path d="M314.635 183.485H311.923V232.557H314.635V183.485Z" fill="#3F3D56"/>
<path d="M326.161 183.485H323.449V232.557H326.161V183.485Z" fill="#3F3D56"/>
<path d="M337.688 183.485H334.976V232.557H337.688V183.485Z" fill="#3F3D56"/>
<path d="M349.214 183.485H346.502V232.557H349.214V183.485Z" fill="#3F3D56"/>
<path d="M218.815 183.485H120.257C118.851 183.486 117.503 184.075 116.509 185.124C115.515 186.173 114.956 187.595 114.955 189.079V226.963C114.956 228.446 115.515 229.869 116.509 230.917C117.503 231.966 118.851 232.556 120.257 232.557H218.815C220.221 232.556 221.569 231.966 222.564 230.917C223.558 229.869 224.117 228.446 224.118 226.963V189.079C224.117 187.595 223.558 186.173 222.564 185.124C221.569 184.075 220.221 183.486 218.815 183.485V183.485Z" fill="#E84D3D"/>
<path d="M124.786 183.485H122.074V232.557H124.786V183.485Z" fill="#3F3D56"/>
<path d="M136.313 183.485H133.601V232.557H136.313V183.485Z" fill="#3F3D56"/>
<path d="M147.839 183.485H145.127V232.557H147.839V183.485Z" fill="#3F3D56"/>
<path d="M159.366 183.485H156.654V232.557H159.366V183.485Z" fill="#3F3D56"/>
<path d="M170.892 183.485H168.18V232.557H170.892V183.485Z" fill="#3F3D56"/>
<path d="M182.419 183.485H179.707V232.557H182.419V183.485Z" fill="#3F3D56"/>
<path d="M193.945 183.485H191.233V232.557H193.945V183.485Z" fill="#3F3D56"/>
<path d="M205.472 183.485H202.76V232.557H205.472V183.485Z" fill="#3F3D56"/>
<path d="M216.998 183.485H214.286V232.557H216.998V183.485Z" fill="#3F3D56"/>
<path d="M561.883 235.454C561.72 234.836 561.509 234.232 561.254 233.649L549.154 206.183C548.266 204.168 546.851 202.462 545.075 201.267C543.299 200.072 541.237 199.437 539.131 199.437H489.499C487.392 199.437 485.33 200.072 483.554 201.267C481.778 202.462 480.363 204.168 479.475 206.183L469.526 228.766H185.871L176.237 206.898C175.35 204.883 173.935 203.178 172.159 201.982C170.383 200.787 168.32 200.152 166.214 200.152H116.582C114.677 200.153 112.805 200.674 111.147 201.665L102.802 185.943C102.251 184.905 101.39 184.089 100.352 183.623C99.3142 183.157 98.1594 183.067 97.0681 183.367C95.9769 183.668 95.0109 184.342 94.3214 185.283C93.6319 186.225 93.2579 187.381 93.2579 188.571V312.044C93.2579 313.883 93.6014 315.705 94.2686 317.404C94.9359 319.104 95.9139 320.648 97.1469 321.949C98.3798 323.25 99.8435 324.282 101.454 324.986C103.065 325.69 104.792 326.052 106.536 326.052H486.353C488.121 326.052 489.872 325.679 491.502 324.956C493.132 324.232 494.609 323.172 495.846 321.838L560.054 252.568C562.14 250.349 563.456 247.452 563.787 244.346C564.119 241.241 563.448 238.108 561.883 235.454V235.454Z" fill="#3F3D56"/>
<path d="M495.058 226.977H488.822C487.491 226.976 486.216 226.417 485.275 225.425C484.334 224.432 483.805 223.087 483.803 221.683V214.388C483.805 212.985 484.334 211.639 485.275 210.646C486.216 209.654 487.491 209.095 488.822 209.094H495.058C496.388 209.095 497.664 209.654 498.604 210.646C499.545 211.639 500.074 212.985 500.076 214.388V221.683C500.074 223.087 499.545 224.432 498.604 225.425C497.664 226.417 496.388 226.976 495.058 226.977Z" fill="white"/>
<path d="M517.433 226.977H511.197C509.866 226.976 508.59 226.417 507.65 225.425C506.709 224.432 506.18 223.087 506.178 221.683V214.388C506.18 212.985 506.709 211.639 507.65 210.646C508.59 209.654 509.866 209.095 511.197 209.094H517.433C518.763 209.095 520.039 209.654 520.979 210.646C521.92 211.639 522.449 212.985 522.451 214.388V221.683C522.449 223.087 521.92 224.432 520.979 225.425C520.039 226.417 518.763 226.976 517.433 226.977V226.977Z" fill="white"/>
<path d="M539.808 226.977H533.572C532.241 226.976 530.965 226.417 530.025 225.425C529.084 224.432 528.555 223.087 528.553 221.683V214.388C528.555 212.985 529.084 211.639 530.025 210.646C530.965 209.654 532.241 209.095 533.572 209.094H539.808C541.138 209.095 542.414 209.654 543.354 210.646C544.295 211.639 544.824 212.985 544.826 214.388V221.683C544.824 223.087 544.295 224.432 543.354 225.425C542.414 226.417 541.138 226.976 539.808 226.977Z" fill="white"/>
<path d="M122.141 227.693H115.905C114.575 227.691 113.299 227.133 112.358 226.14C111.417 225.148 110.888 223.802 110.887 222.398V215.104C110.888 213.7 111.417 212.354 112.358 211.362C113.299 210.369 114.575 209.811 115.905 209.809H122.141C123.471 209.811 124.747 210.369 125.688 211.362C126.629 212.354 127.158 213.7 127.159 215.104V222.398C127.158 223.802 126.629 225.148 125.688 226.14C124.747 227.133 123.471 227.691 122.141 227.693V227.693Z" fill="white"/>
<path d="M144.516 227.693H138.28C136.949 227.691 135.674 227.133 134.733 226.14C133.792 225.148 133.263 223.802 133.262 222.398V215.104C133.263 213.7 133.792 212.354 134.733 211.362C135.674 210.369 136.949 209.811 138.28 209.809H144.516C145.846 209.811 147.122 210.369 148.063 211.362C149.004 212.354 149.533 213.7 149.534 215.104V222.398C149.533 223.802 149.004 225.148 148.063 226.14C147.122 227.133 145.846 227.691 144.516 227.693V227.693Z" fill="white"/>
<path d="M166.891 227.693H160.655C159.324 227.691 158.049 227.133 157.108 226.14C156.167 225.148 155.638 223.802 155.637 222.398V215.104C155.638 213.7 156.167 212.354 157.108 211.362C158.049 210.369 159.324 209.811 160.655 209.809H166.891C168.221 209.811 169.497 210.369 170.438 211.362C171.379 212.354 171.908 213.7 171.909 215.104V222.398C171.908 223.802 171.379 225.148 170.438 226.14C169.497 227.133 168.221 227.691 166.891 227.693V227.693Z" fill="white"/>
<path d="M83.4421 303.029C65.8773 302.585 47.0471 312.968 42.049 330.739L137.397 326.644C135.593 325.329 133.782 324.03 131.963 322.748C117.333 312.483 101.007 303.472 83.4421 303.029Z" fill="#E84D3D"/>
<path d="M137.397 326.644C150.076 335.891 162.45 345.759 176.578 352.178C211.56 368.073 251.831 360.66 288.639 350.329C325.447 339.998 363.021 326.872 400.774 332.197C422.182 335.216 442.392 344.053 463.056 350.682C483.72 357.312 505.953 361.751 526.802 355.799C547.65 349.847 566.455 330.972 567 308.193C409.607 277.491 263.687 276.579 137.397 326.644Z" fill="#E84D3D"/>
</svg>
