<svg width="367" height="370" viewBox="0 0 367 370" fill="none" xmlns="http://www.w3.org/2000/svg">
<ellipse cx="183.5" cy="185" rx="183.5" ry="185" fill="url(#paint0_linear_174_2229)"/>
<g clip-path="url(#clip0_174_2229)">
<path d="M285.057 156.679C284.884 156.122 284.322 155.705 283.736 155.39C283.15 155.076 282.505 154.824 282.005 154.421C281.505 154.019 281.168 153.408 281.4 152.865C281.683 152.206 282.623 151.942 283.446 151.765C275.918 151.099 268.354 150.752 260.783 150.725C260.613 150.535 260.374 150.394 260.1 150.322C259.826 150.251 259.532 150.252 259.259 150.326C258.986 150.4 258.749 150.544 258.58 150.735C258.412 150.927 258.322 151.157 258.323 151.394V171.398H261.057V159.109C267.551 159.122 274.044 159.135 280.538 159.148C281.59 159.15 282.684 159.145 283.629 158.766C284.574 158.388 285.317 157.517 285.057 156.679Z" fill="#CCCCCC"/>
<path d="M300.152 192.525V185.783H306.44C307.552 185.783 308.655 185.602 309.683 185.252C310.711 184.902 311.645 184.389 312.432 183.742C313.219 183.095 313.844 182.327 314.269 181.481C314.695 180.636 314.915 179.73 314.915 178.815L267.072 178.815C267.072 177.98 267.475 177.18 268.193 176.59C268.91 176 269.884 175.668 270.899 175.668H304.252V174.886C304.252 172.215 302.003 170.049 299.229 170.049H257.66C251.258 170.049 245.409 173.439 242.392 178.815H235.697C235.129 178.815 234.584 178.997 234.176 179.321L229.942 182.693C229.63 182.942 229.414 183.262 229.324 183.613C229.234 183.963 229.274 184.327 229.437 184.659C229.6 184.991 229.881 185.275 230.242 185.476C230.603 185.676 231.029 185.783 231.464 185.783H236.725V192.525H212.556C212.247 192.525 211.942 192.579 211.66 192.683C211.378 192.787 211.126 192.939 210.921 193.129L206.061 197.624C205.781 197.883 205.598 198.203 205.534 198.546C205.47 198.889 205.528 199.239 205.7 199.555C205.873 199.872 206.153 200.14 206.507 200.328C206.861 200.517 207.274 200.617 207.696 200.617H222.727C223.098 200.617 223.463 200.695 223.787 200.842C224.111 200.99 224.385 201.203 224.581 201.462L227.219 204.929C227.418 205.191 227.532 205.491 227.549 205.8C227.567 206.109 227.487 206.416 227.317 206.693C227.148 206.969 226.895 207.204 226.582 207.376C226.27 207.548 225.908 207.651 225.533 207.675L192.931 209.749C192.534 209.774 192.153 209.888 191.829 210.078C191.505 210.268 191.251 210.527 191.093 210.828L184.189 223.953C184.045 224.227 183.986 224.525 184.017 224.822C184.049 225.119 184.169 225.405 184.369 225.654C184.568 225.903 184.839 226.108 185.158 226.249C185.477 226.391 185.834 226.465 186.196 226.465H295.13C297.798 226.466 300.461 226.266 303.085 225.869C322.533 222.918 336.512 208.785 336.512 192.525L300.152 192.525ZM244.927 185.783H291.95V192.525H244.927V185.783ZM313.274 200.167C313.274 201.112 313.048 202.047 312.608 202.92C312.169 203.793 311.524 204.585 310.712 205.253C309.9 205.921 308.935 206.451 307.874 206.812C306.812 207.174 305.675 207.36 304.526 207.36H233.991C233.991 205.452 234.913 203.623 236.554 202.274C238.195 200.925 240.42 200.167 242.74 200.167L313.274 200.167Z" fill="#3F3D56"/>
<path d="M301.792 203.764H243.287C242.924 203.764 242.577 203.883 242.321 204.093C242.065 204.304 241.92 204.59 241.92 204.888V207.585H303.159V204.888C303.159 204.59 303.014 204.304 302.758 204.093C302.502 203.883 302.154 203.764 301.792 203.764V203.764ZM254.769 204.213H261.221V207.135H254.769V204.213ZM254.222 207.135H247.771V204.213H254.222V207.135ZM261.768 204.213H268.219V207.135H261.768V204.213ZM268.766 204.213H275.217V207.135H268.766V204.213ZM275.764 204.213H282.216V207.135H275.764V204.213ZM282.762 204.213H289.214V207.135H282.762V204.213ZM289.761 204.213H296.212V207.135H289.761V204.213ZM242.467 204.888C242.467 204.709 242.553 204.537 242.707 204.411C242.861 204.285 243.069 204.213 243.287 204.213H247.224V207.135H242.467V204.888ZM302.612 207.135H296.759V204.213H301.792C302.01 204.213 302.218 204.285 302.372 204.411C302.526 204.537 302.612 204.709 302.612 204.888V207.135Z" fill="#3F3D56"/>
<path d="M297.965 172.072H294.411V184.209H297.965V172.072Z" fill="#3F3D56"/>
<path d="M232.625 227.139H175.213C174.995 227.139 174.787 227.068 174.633 226.942C174.479 226.815 174.393 226.644 174.393 226.465C174.393 226.286 174.479 226.115 174.633 225.988C174.787 225.862 174.995 225.791 175.213 225.791H232.625C232.842 225.791 233.051 225.862 233.205 225.988C233.358 226.115 233.445 226.286 233.445 226.465C233.445 226.644 233.358 226.815 233.205 226.942C233.051 227.068 232.842 227.139 232.625 227.139V227.139Z" fill="#CCCCCC"/>
<path d="M207.199 231.185H183.415C183.197 231.185 182.989 231.114 182.835 230.987C182.681 230.861 182.594 230.69 182.594 230.511C182.594 230.332 182.681 230.16 182.835 230.034C182.989 229.907 183.197 229.836 183.415 229.836H207.199C207.417 229.836 207.626 229.907 207.779 230.034C207.933 230.16 208.02 230.332 208.02 230.511C208.02 230.69 207.933 230.861 207.779 230.987C207.626 231.114 207.417 231.185 207.199 231.185V231.185Z" fill="#CCCCCC"/>
<path d="M312.181 227.139H254.769C254.552 227.139 254.343 227.068 254.189 226.942C254.035 226.815 253.949 226.644 253.949 226.465C253.949 226.286 254.035 226.115 254.189 225.988C254.343 225.862 254.552 225.791 254.769 225.791H312.181C312.398 225.791 312.607 225.862 312.761 225.988C312.915 226.115 313.001 226.286 313.001 226.465C313.001 226.644 312.915 226.815 312.761 226.942C312.607 227.068 312.398 227.139 312.181 227.139V227.139Z" fill="#CCCCCC"/>
<path d="M276.914 231.185H219.502C219.285 231.185 219.076 231.114 218.922 230.987C218.768 230.861 218.682 230.69 218.682 230.511C218.682 230.332 218.768 230.16 218.922 230.034C219.076 229.907 219.285 229.836 219.502 229.836H276.914C277.131 229.836 277.34 229.907 277.494 230.034C277.647 230.16 277.734 230.332 277.734 230.511C277.734 230.69 277.647 230.861 277.494 230.987C277.34 231.114 277.131 231.185 276.914 231.185V231.185Z" fill="#CCCCCC"/>
<path d="M232.625 234.781H175.213C174.996 234.781 174.787 234.71 174.634 234.583C174.48 234.457 174.394 234.286 174.394 234.107C174.394 233.928 174.48 233.757 174.634 233.63C174.787 233.504 174.996 233.433 175.213 233.433H232.625C232.842 233.433 233.05 233.504 233.204 233.63C233.357 233.757 233.443 233.928 233.443 234.107C233.443 234.286 233.357 234.457 233.204 234.583C233.05 234.71 232.842 234.781 232.625 234.781V234.781Z" fill="#CCCCCC"/>
<path d="M267.072 238.827H243.287C243.069 238.827 242.861 238.756 242.707 238.629C242.553 238.503 242.467 238.331 242.467 238.153C242.467 237.974 242.553 237.802 242.707 237.676C242.861 237.549 243.069 237.478 243.287 237.478H267.072C267.289 237.478 267.498 237.549 267.651 237.676C267.805 237.802 267.892 237.974 267.892 238.153C267.892 238.331 267.805 238.503 267.651 238.629C267.498 238.756 267.289 238.827 267.072 238.827V238.827Z" fill="#CCCCCC"/>
<path d="M215.675 238.827H191.89C191.672 238.827 191.464 238.756 191.31 238.629C191.156 238.503 191.07 238.331 191.07 238.153C191.07 237.974 191.156 237.802 191.31 237.676C191.464 237.549 191.672 237.478 191.89 237.478H215.675C215.892 237.478 216.101 237.549 216.255 237.676C216.408 237.802 216.495 237.974 216.495 238.153C216.495 238.331 216.408 238.503 216.255 238.629C216.101 238.756 215.892 238.827 215.675 238.827V238.827Z" fill="#CCCCCC"/>
<path d="M312.181 234.781H254.769C254.552 234.781 254.343 234.71 254.189 234.584C254.035 234.457 253.949 234.286 253.949 234.107C253.949 233.928 254.035 233.757 254.189 233.63C254.343 233.504 254.552 233.433 254.769 233.433H312.181C312.398 233.433 312.606 233.504 312.76 233.63C312.913 233.757 313 233.928 313 234.107C313 234.286 312.913 234.457 312.76 234.583C312.606 234.71 312.398 234.781 312.181 234.781V234.781Z" fill="#CCCCCC"/>
<path d="M336.786 238.827H279.374C279.157 238.827 278.948 238.756 278.794 238.629C278.64 238.503 278.554 238.331 278.554 238.153C278.554 237.974 278.64 237.802 278.794 237.676C278.948 237.549 279.157 237.478 279.374 237.478H336.786C337.003 237.478 337.212 237.549 337.366 237.676C337.52 237.802 337.606 237.974 337.606 238.153C337.606 238.331 337.52 238.503 337.366 238.629C337.212 238.756 337.003 238.827 336.786 238.827V238.827Z" fill="#CCCCCC"/>
</g>
<path d="M176.978 260.311C256.609 260.311 321.163 257.631 321.163 254.326C321.163 251.02 256.609 248.34 176.978 248.34C97.3466 248.34 32.7927 251.02 32.7927 254.326C32.7927 257.631 97.3466 260.311 176.978 260.311Z" fill="#E6E6E6"/>
<path d="M69.4882 179.312C89.7546 179.312 106.184 162.488 106.184 141.736C106.184 120.983 89.7546 104.159 69.4882 104.159C49.2219 104.159 32.7927 120.983 32.7927 141.736C32.7927 162.488 49.2219 179.312 69.4882 179.312Z" fill="#E84D3D"/>
<path d="M73.0251 254.917H65.509L68.9354 136.076L73.0251 254.917Z" fill="#3F3D56"/>
<path d="M69.5987 158.599L77.6675 147.168L69.4883 161.429L68.604 159.844L69.5987 158.599Z" fill="#3F3D56"/>
<path d="M68.7145 170.144L60.646 158.713L68.8252 172.974L69.7095 171.389L68.7145 170.144Z" fill="#3F3D56"/>
<path d="M181.866 255.022C219.62 255.022 250.225 223.682 250.225 185.023C250.225 146.363 219.62 115.023 181.866 115.023C144.113 115.023 113.507 146.363 113.507 185.023C113.507 223.682 144.113 255.022 181.866 255.022Z" fill="#3F3D56"/>
<path d="M181.866 249.228C216.494 249.228 244.566 220.482 244.566 185.023C244.566 149.563 216.494 120.818 181.866 120.818C147.238 120.818 119.166 149.563 119.166 185.023C119.166 220.482 147.238 249.228 181.866 249.228Z" fill="white"/>
<path d="M181.639 193.831C186.265 193.831 190.015 189.991 190.015 185.254C190.015 180.518 186.265 176.678 181.639 176.678C177.014 176.678 173.264 180.518 173.264 185.254C173.264 189.991 177.014 193.831 181.639 193.831Z" fill="#3F3D56"/>
<path d="M183.451 124.063H179.829V131.016H183.451V124.063Z" fill="#3F3D56"/>
<path d="M183.451 239.493H179.829V246.446H183.451V239.493Z" fill="#3F3D56"/>
<path d="M128.673 187.109V183.4H121.882V187.109H128.673Z" fill="#3F3D56"/>
<path d="M241.397 187.109V183.4H234.606V187.109H241.397Z" fill="#3F3D56"/>
<path d="M179.225 188.977L182.32 181.73L221.102 203.725L179.225 188.977Z" fill="#3F3D56"/>
<path d="M190.694 98.1026H173.038V118.963H190.694V98.1026Z" fill="#3F3D56"/>
<path d="M181.866 103.897C193.117 103.897 202.238 101.303 202.238 98.1026C202.238 94.9023 193.117 92.308 181.866 92.308C170.615 92.308 161.494 94.9023 161.494 98.1026C161.494 101.303 170.615 103.897 181.866 103.897Z" fill="#3F3D56"/>
<path d="M220.006 197.423L218.875 199.046C218.875 199.046 213.669 205.304 213.442 202.291C213.216 199.278 217.29 197.191 217.29 197.191L219.554 195.801L220.006 197.423Z" fill="#FFB8B8"/>
<path d="M252.227 202.897L253.175 204.639C253.175 204.639 256.47 212.136 253.714 211.056C250.957 209.976 250.86 205.312 250.86 205.312L250.601 202.622L252.227 202.897Z" fill="#FFB8B8"/>
<path d="M247.132 172.012C250.938 172.012 254.024 168.852 254.024 164.954C254.024 161.056 250.938 157.896 247.132 157.896C243.325 157.896 240.239 161.056 240.239 164.954C240.239 168.852 243.325 172.012 247.132 172.012Z" fill="#2F2E41"/>
<path d="M246.49 222.92L247.395 228.946V230.801H252.602V228.483C252.602 228.483 252.828 224.31 251.922 223.152C251.017 221.993 246.49 222.92 246.49 222.92Z" fill="#FFB8B8"/>
<path d="M237.209 222.92L238.115 228.946V230.801H243.321V228.483C243.321 228.483 243.547 224.31 242.642 223.152C241.737 221.993 237.209 222.92 237.209 222.92Z" fill="#FFB8B8"/>
<path d="M240.713 174.512C240.713 174.512 238.71 175.593 240.078 178.051C241.445 180.509 249.47 205.943 249.47 205.943L254.099 204.597L250.017 188.512L247.679 178.403L240.713 174.512Z" fill="#E84D3D"/>
<path d="M246.377 172.274C249.252 172.274 251.583 169.888 251.583 166.943C251.583 163.999 249.252 161.612 246.377 161.612C243.502 161.612 241.171 163.999 241.171 166.943C241.171 169.888 243.502 172.274 246.377 172.274Z" fill="#FFB8B8"/>
<path d="M248.753 167.755L248.074 178.649L243.321 175.172C243.321 175.172 244.905 168.682 244.453 168.218L248.753 167.755Z" fill="#FFB8B8"/>
<path d="M248.753 177.721L243.632 173.838C243.632 173.838 241.284 172.854 240.605 174.013C239.925 175.172 236.53 192.324 238.341 195.569C238.341 195.569 248.074 197.655 250.111 196.496L251.017 190.47C251.017 190.47 252.149 186.761 250.338 184.443L248.753 177.721Z" fill="#E84D3D"/>
<path d="M241.963 174.245C241.963 174.245 240.152 172.854 238.568 175.172C236.983 177.49 217.969 195.801 217.969 195.801L221.138 199.509L233.588 188.847L241.51 182.357L241.963 174.245Z" fill="#E84D3D"/>
<path d="M250.225 196.38C250.225 196.38 239.02 194.178 237.888 195.801L237.662 198.35C237.662 198.35 235.172 203.218 236.53 211.099C237.888 218.979 236.983 223.847 236.983 223.847C236.983 223.847 243.095 223.152 247.622 223.847C252.149 224.542 252.828 223.847 252.828 223.847L250.225 196.38Z" fill="#2F2E41"/>
<path d="M253.054 229.873L246.49 230.105L248.754 247.489C248.754 247.489 246.943 254.906 248.98 255.37C250.396 255.663 251.836 255.818 253.281 255.834C253.281 255.834 255.318 257.92 257.581 257.688C259.085 257.491 260.541 257.02 261.882 256.297C261.882 256.297 262.335 254.906 260.75 254.443C259.166 253.979 254.865 252.588 253.96 247.721L253.054 229.873Z" fill="#2F2E41"/>
<path d="M243.774 229.873L237.209 230.105L239.473 247.489C239.473 247.489 237.662 254.906 239.699 255.37C241.115 255.663 242.555 255.818 244 255.834C244 255.834 246.037 257.92 248.301 257.688C249.804 257.491 251.261 257.02 252.601 256.297C252.601 256.297 253.054 254.906 251.47 254.443C249.885 253.979 245.585 252.589 244.679 247.721L243.774 229.873Z" fill="#2F2E41"/>
<path d="M249.542 160.446C251.118 160.446 252.394 159.139 252.394 157.526C252.394 155.913 251.118 154.605 249.542 154.605C247.967 154.605 246.69 155.913 246.69 157.526C246.69 159.139 247.967 160.446 249.542 160.446Z" fill="#2F2E41"/>
<path d="M253.345 155.944C253.345 155.222 253.084 154.526 252.612 153.989C252.14 153.453 251.491 153.114 250.79 153.039C250.889 153.029 250.988 153.023 251.087 153.023C251.844 153.023 252.569 153.331 253.104 153.879C253.639 154.426 253.939 155.169 253.939 155.944C253.939 156.718 253.639 157.461 253.104 158.009C252.569 158.557 251.844 158.864 251.087 158.864C250.988 158.864 250.889 158.859 250.79 158.848C251.491 158.773 252.14 158.435 252.612 157.898C253.084 157.362 253.345 156.666 253.345 155.944V155.944Z" fill="#2F2E41"/>
<path d="M246.33 166.378C248.955 166.378 251.083 165.07 251.083 163.458C251.083 161.845 248.955 160.537 246.33 160.537C243.705 160.537 241.576 161.845 241.576 163.458C241.576 165.07 243.705 166.378 246.33 166.378Z" fill="#2F2E41"/>
<path d="M304.792 248.594C304.793 248.551 304.798 248.509 304.798 248.465C304.799 247.796 304.636 247.138 304.323 246.551C304.011 245.964 303.559 245.467 303.009 245.106C302.46 244.745 301.831 244.531 301.179 244.484C300.528 244.438 299.875 244.56 299.282 244.839C298.725 244.181 297.973 243.728 297.141 243.55C296.309 243.371 295.442 243.477 294.675 243.851C293.907 244.226 293.28 244.847 292.891 245.621C292.501 246.395 292.37 247.278 292.517 248.136C292.497 248.135 292.478 248.133 292.458 248.133C291.838 248.132 291.226 248.282 290.674 248.572C290.122 248.862 289.646 249.282 289.285 249.799C288.923 250.315 288.688 250.913 288.597 251.541C288.507 252.169 288.564 252.811 288.764 253.412C288.965 254.013 289.303 254.557 289.749 254.997C290.196 255.438 290.739 255.763 291.334 255.945C291.928 256.128 292.556 256.162 293.166 256.046C293.776 255.929 294.35 255.666 294.84 255.276C295.149 255.893 295.611 256.417 296.178 256.796C296.745 257.175 297.399 257.396 298.076 257.437C298.752 257.477 299.427 257.337 300.034 257.029C300.641 256.721 301.159 256.257 301.537 255.681C302.001 256.027 302.533 256.263 303.096 256.373C303.659 256.483 304.239 256.465 304.795 256.319C305.35 256.173 305.867 255.903 306.309 255.529C306.751 255.155 307.107 254.685 307.351 254.154C307.595 253.623 307.721 253.043 307.721 252.456C307.721 251.868 307.594 251.288 307.35 250.757C307.105 250.226 306.749 249.757 306.307 249.383C305.865 249.009 305.348 248.74 304.792 248.594V248.594Z" fill="#E6E6E6"/>
<path d="M286.288 188.942C287.185 188.942 287.912 188.197 287.912 187.279C287.912 186.361 287.185 185.616 286.288 185.616C285.392 185.616 284.665 186.361 284.665 187.279C284.665 188.197 285.392 188.942 286.288 188.942Z" fill="#E6E6E6"/>
<defs>
<linearGradient id="paint0_linear_174_2229" x1="261.719" y1="13.1751" x2="-182.251" y2="336.33" gradientUnits="userSpaceOnUse">
<stop stop-color="#E84D3D"/>
<stop offset="1" stop-color="#5944D7"/>
</linearGradient>
<clipPath id="clip0_174_2229">
<rect width="163.213" height="88.5573" fill="white" transform="translate(174.393 150.27)"/>
</clipPath>
</defs>
</svg>
