<svg width="367" height="370" viewBox="0 0 367 370" fill="none" xmlns="http://www.w3.org/2000/svg">
<ellipse cx="183.5" cy="185" rx="183.5" ry="185" fill="url(#paint0_linear_248_98)"/>
<g clip-path="url(#clip0_248_98)">
<path d="M256.026 118.998C255.861 118.342 255.321 117.851 254.759 117.481C254.196 117.112 253.577 116.815 253.097 116.341C252.617 115.868 252.294 115.149 252.517 114.511C252.788 113.735 253.691 113.425 254.48 113.216C247.255 112.433 239.995 112.025 232.728 111.993C232.564 111.769 232.335 111.603 232.072 111.519C231.809 111.435 231.527 111.436 231.265 111.523C231.003 111.611 230.775 111.779 230.614 112.004C230.452 112.23 230.366 112.501 230.367 112.779V136.315H232.991V121.857C239.224 121.872 245.456 121.888 251.689 121.903C252.698 121.905 253.748 121.899 254.656 121.453C255.563 121.008 256.276 119.983 256.026 118.998Z" fill="#CCCCCC"/>
<path d="M270.515 161.173V153.239H276.55C277.618 153.239 278.676 153.027 279.663 152.615C280.65 152.203 281.547 151.6 282.302 150.838C283.057 150.077 283.657 149.173 284.065 148.179C284.474 147.184 284.685 146.118 284.685 145.042L238.764 145.041C238.764 144.06 239.151 143.118 239.84 142.424C240.529 141.729 241.463 141.339 242.437 141.339H274.451V140.419C274.451 137.276 272.292 134.728 269.629 134.728H229.73C223.585 134.728 217.971 138.717 215.075 145.041H208.65C208.105 145.041 207.581 145.255 207.189 145.638L203.126 149.604C202.826 149.897 202.62 150.274 202.533 150.686C202.447 151.099 202.484 151.527 202.641 151.918C202.798 152.308 203.067 152.643 203.414 152.878C203.76 153.114 204.169 153.239 204.587 153.239H209.637V161.173H186.438C186.142 161.173 185.849 161.236 185.578 161.358C185.308 161.481 185.066 161.66 184.869 161.883L180.204 167.172C179.935 167.477 179.76 167.853 179.698 168.256C179.637 168.659 179.692 169.072 179.858 169.444C180.024 169.816 180.293 170.132 180.633 170.353C180.972 170.575 181.369 170.693 181.773 170.693H196.201C196.557 170.693 196.907 170.784 197.218 170.958C197.529 171.132 197.792 171.382 197.98 171.687L200.512 175.766C200.704 176.075 200.813 176.428 200.829 176.791C200.846 177.154 200.769 177.516 200.607 177.841C200.444 178.166 200.201 178.443 199.901 178.645C199.601 178.848 199.254 178.969 198.894 178.997L167.602 181.437C167.221 181.466 166.856 181.6 166.545 181.824C166.234 182.048 165.989 182.353 165.837 182.706L159.211 198.149C159.073 198.471 159.016 198.822 159.046 199.172C159.077 199.521 159.192 199.857 159.383 200.15C159.574 200.443 159.835 200.684 160.141 200.85C160.447 201.017 160.79 201.104 161.138 201.104H265.695C268.256 201.105 270.812 200.87 273.33 200.403C291.997 196.931 305.415 180.303 305.415 161.173L270.515 161.173ZM217.509 153.239H262.643V161.173H217.509V153.239ZM283.11 170.164C283.11 171.275 282.893 172.376 282.471 173.402C282.049 174.429 281.431 175.362 280.651 176.148C279.871 176.933 278.945 177.557 277.927 177.982C276.908 178.407 275.816 178.626 274.713 178.626H207.013C207.013 176.382 207.897 174.229 209.472 172.642C211.047 171.055 213.183 170.164 215.41 170.164L283.11 170.164Z" fill="#3F3D56"/>
<path d="M272.089 174.395H215.934C215.586 174.395 215.253 174.535 215.007 174.783C214.761 175.031 214.623 175.367 214.622 175.717V178.891H273.401V175.717C273.401 175.367 273.262 175.031 273.016 174.783C272.77 174.535 272.437 174.395 272.089 174.395V174.395ZM226.955 174.924H233.148V178.362H226.955V174.924ZM226.431 178.362H220.238V174.924H226.431V178.362ZM233.673 174.924H239.865V178.362H233.673V174.924ZM240.39 174.924H246.582V178.362H240.39V174.924ZM247.107 174.924H253.299V178.362H247.107V174.924ZM253.824 174.924H260.016V178.362H253.824V174.924ZM260.541 174.924H266.734V178.362H260.541V174.924ZM215.147 175.717C215.147 175.507 215.23 175.305 215.378 175.157C215.526 175.008 215.726 174.924 215.934 174.924H219.713V178.362H215.147V175.717ZM272.876 178.362H267.258V174.924H272.089C272.298 174.924 272.498 175.008 272.645 175.157C272.793 175.305 272.876 175.507 272.876 175.717V178.362Z" fill="#3F3D56"/>
<path d="M268.415 137.108H265.004V151.388H268.415V137.108Z" fill="#3F3D56"/>
<path d="M205.701 201.897H150.596C150.387 201.897 150.187 201.814 150.039 201.665C149.891 201.516 149.808 201.315 149.808 201.104C149.808 200.894 149.891 200.692 150.039 200.543C150.187 200.394 150.387 200.311 150.596 200.311H205.701C205.909 200.311 206.11 200.394 206.257 200.543C206.405 200.692 206.488 200.894 206.488 201.104C206.488 201.315 206.405 201.516 206.257 201.665C206.11 201.814 205.909 201.897 205.701 201.897V201.897Z" fill="#CCCCCC"/>
<path d="M181.297 206.658H158.468C158.259 206.658 158.059 206.574 157.911 206.425C157.763 206.276 157.68 206.075 157.68 205.864C157.68 205.654 157.763 205.452 157.911 205.303C158.059 205.154 158.259 205.071 158.468 205.071H181.297C181.506 205.071 181.706 205.154 181.854 205.303C182.001 205.452 182.084 205.654 182.084 205.864C182.084 206.075 182.001 206.276 181.854 206.425C181.706 206.574 181.506 206.658 181.297 206.658V206.658Z" fill="#CCCCCC"/>
<path d="M282.061 201.897H226.955C226.747 201.897 226.546 201.814 226.399 201.665C226.251 201.516 226.168 201.315 226.168 201.104C226.168 200.894 226.251 200.692 226.399 200.543C226.546 200.394 226.747 200.311 226.955 200.311H282.061C282.269 200.311 282.47 200.394 282.617 200.543C282.765 200.692 282.848 200.894 282.848 201.104C282.848 201.315 282.765 201.516 282.617 201.665C282.47 201.814 282.269 201.897 282.061 201.897V201.897Z" fill="#CCCCCC"/>
<path d="M248.21 206.658H193.105C192.896 206.658 192.696 206.574 192.548 206.425C192.401 206.276 192.318 206.075 192.318 205.864C192.318 205.654 192.401 205.452 192.548 205.303C192.696 205.154 192.896 205.071 193.105 205.071H248.21C248.419 205.071 248.619 205.154 248.767 205.303C248.914 205.452 248.997 205.654 248.997 205.864C248.997 206.075 248.914 206.276 248.767 206.425C248.619 206.574 248.419 206.658 248.21 206.658V206.658Z" fill="#CCCCCC"/>
<path d="M205.701 210.889H150.596C150.387 210.888 150.187 210.805 150.04 210.656C149.892 210.507 149.81 210.305 149.81 210.095C149.81 209.885 149.892 209.684 150.04 209.535C150.187 209.386 150.387 209.302 150.596 209.302H205.701C205.909 209.302 206.109 209.386 206.256 209.535C206.404 209.684 206.487 209.885 206.487 210.095C206.487 210.305 206.404 210.507 206.256 210.656C206.109 210.805 205.909 210.888 205.701 210.889V210.889Z" fill="#CCCCCC"/>
<path d="M238.764 215.649H215.934C215.726 215.649 215.525 215.565 215.378 215.416C215.23 215.268 215.147 215.066 215.147 214.855C215.147 214.645 215.23 214.443 215.378 214.294C215.525 214.146 215.726 214.062 215.934 214.062H238.764C238.972 214.062 239.173 214.146 239.32 214.294C239.468 214.443 239.551 214.645 239.551 214.855C239.551 215.066 239.468 215.268 239.32 215.416C239.173 215.565 238.972 215.649 238.764 215.649V215.649Z" fill="#CCCCCC"/>
<path d="M189.431 215.649H166.602C166.393 215.649 166.193 215.565 166.046 215.416C165.898 215.268 165.815 215.066 165.815 214.855C165.815 214.645 165.898 214.443 166.046 214.294C166.193 214.146 166.393 214.062 166.602 214.062H189.431C189.64 214.062 189.84 214.146 189.988 214.294C190.136 214.443 190.219 214.645 190.219 214.855C190.219 215.066 190.136 215.268 189.988 215.416C189.84 215.565 189.64 215.649 189.431 215.649V215.649Z" fill="#CCCCCC"/>
<path d="M282.061 210.889H226.955C226.747 210.889 226.546 210.805 226.399 210.656C226.251 210.508 226.168 210.306 226.168 210.095C226.168 209.885 226.251 209.683 226.399 209.534C226.546 209.386 226.747 209.302 226.955 209.302H282.061C282.269 209.302 282.469 209.386 282.616 209.535C282.764 209.684 282.846 209.885 282.846 210.095C282.846 210.305 282.764 210.507 282.616 210.656C282.469 210.805 282.269 210.888 282.061 210.889V210.889Z" fill="#CCCCCC"/>
<path d="M305.677 215.649H250.572C250.363 215.649 250.163 215.565 250.015 215.416C249.868 215.268 249.785 215.066 249.785 214.855C249.785 214.645 249.868 214.443 250.015 214.294C250.163 214.146 250.363 214.062 250.572 214.062H305.677C305.886 214.062 306.086 214.146 306.234 214.294C306.381 214.443 306.464 214.645 306.464 214.855C306.464 215.066 306.381 215.268 306.234 215.416C306.086 215.565 305.886 215.649 305.677 215.649V215.649Z" fill="#CCCCCC"/>
</g>
<path d="M22.9373 232.784C30.8825 240.057 38.6363 247.819 47.4891 252.868C69.4099 265.37 94.6444 259.539 117.709 251.413C140.774 243.288 164.319 232.963 187.976 237.151C201.39 239.526 214.055 246.476 227.003 251.691C239.952 256.905 253.884 260.397 266.948 255.715C280.012 251.034 291.795 236.188 292.137 218.271C193.511 194.122 102.074 193.405 22.9373 232.784Z" fill="#F2F2F2"/>
<path d="M47.0932 208.538C36.0867 208.189 24.2872 216.356 21.1553 230.334L80.9023 227.113C79.7723 226.078 78.6373 225.057 77.4972 224.048C68.3301 215.974 58.0996 208.887 47.0932 208.538Z" fill="#E84D3D"/>
<path d="M66.5854 221.54C74.5306 228.813 82.2844 236.575 91.1372 241.624C113.058 254.126 138.293 248.296 161.358 240.17C184.423 232.044 207.967 221.719 231.624 225.907C245.038 228.282 257.703 235.233 270.651 240.447C283.6 245.662 297.532 249.153 310.596 244.472C323.66 239.79 335.444 224.944 335.785 207.027C237.159 182.878 145.722 182.161 66.5854 221.54Z" fill="#E84D3D"/>
<defs>
<linearGradient id="paint0_linear_248_98" x1="261.719" y1="13.1751" x2="-182.251" y2="336.33" gradientUnits="userSpaceOnUse">
<stop stop-color="#E84D3D"/>
<stop offset="1" stop-color="#5944D7"/>
</linearGradient>
<clipPath id="clip0_248_98">
<rect width="156.656" height="104.192" fill="white" transform="translate(149.808 111.457)"/>
</clipPath>
</defs>
</svg>
