<svg width="1182" height="825" viewBox="0 0 1182 825" fill="none" xmlns="http://www.w3.org/2000/svg">
<path d="M922.488 164.616C798.332 60.4889 593.645 60.5935 420.541 168.463C329.026 225.491 248.889 311.431 231.671 439.989C200.891 669.8 396.252 686.896 518.212 675.965C577.185 670.68 634.691 673.204 689.241 683.155C787.38 701.058 951.42 695.774 1022.21 489.612C1073.52 340.185 1005.19 233.975 922.488 164.616Z" fill="url(#paint0_linear_174_1927)"/>
<path d="M1037.3 585.833H1030.41C1028.94 585.831 1027.53 585.136 1026.49 583.901C1025.46 582.666 1024.87 580.991 1024.87 579.245V570.168C1024.87 568.422 1025.46 566.747 1026.49 565.512C1027.53 564.277 1028.94 563.582 1030.41 563.58H1037.3C1038.77 563.582 1040.18 564.277 1041.22 565.512C1042.25 566.747 1042.84 568.422 1042.84 570.168V579.245C1042.84 580.991 1042.25 582.666 1041.22 583.901C1040.18 585.136 1038.77 585.831 1037.3 585.833Z" fill="white"/>
<path d="M1062.01 585.833H1055.12C1053.65 585.831 1052.24 585.136 1051.2 583.901C1050.17 582.666 1049.58 580.991 1049.58 579.245V570.168C1049.58 568.422 1050.17 566.747 1051.2 565.512C1052.24 564.277 1053.65 563.582 1055.12 563.58H1062.01C1063.48 563.582 1064.89 564.277 1065.92 565.512C1066.96 566.747 1067.55 568.422 1067.55 570.168V579.245C1067.55 580.991 1066.96 582.666 1065.92 583.901C1064.89 585.136 1063.48 585.831 1062.01 585.833Z" fill="white"/>
<line y1="-0.5" x2="76.6456" y2="-0.5" transform="matrix(0.999847 0.017496 -0.0169854 0.999856 934.712 470.056)" stroke="#47D1DA"/>
<line y1="-0.5" x2="72.1553" y2="-0.5" transform="matrix(0.842331 0.538961 -0.527653 0.84946 934.712 470.056)" stroke="#47D1DA"/>
<line y1="-0.5" x2="37.2855" y2="-0.5" transform="matrix(0.354367 0.935106 -0.931542 0.363633 934.712 470.056)" stroke="#47D1DA"/>
<line y1="-0.5" x2="40.5958" y2="-0.5" transform="matrix(0.943866 0.330329 -0.321696 0.946843 1019.27 471.397)" stroke="#47D1DA"/>
<line y1="-0.5" x2="62.948" y2="-0.5" transform="matrix(0.923558 -0.383458 0.373848 0.92749 999.454 508.945)" stroke="#47D1DA"/>
<line y1="-0.5" x2="104.308" y2="-0.5" transform="matrix(0.988028 -0.154273 0.149872 0.988705 954.531 500.899)" stroke="#47D1DA"/>
<line y1="-0.5" x2="123.608" y2="-0.5" transform="matrix(0.994098 0.108488 -0.105356 0.994435 934.712 471.397)" stroke="#47D1DA"/>
<path d="M274.604 168.533C274.179 165.13 273.321 161.797 272.05 158.618C271.887 158.017 271.604 157.456 271.216 156.972C270.829 156.489 270.346 156.092 269.799 155.808C269.068 155.615 268.302 155.606 267.566 155.782L256.103 157.561C255.144 157.605 254.225 157.967 253.487 158.591C251.994 160.183 253.465 162.747 253.419 164.944C253.368 167.414 251.203 169.418 248.856 170.082C246.46 170.573 243.989 170.542 241.606 169.991L225.577 167.465C230.298 165.937 234.5 163.093 237.703 159.26C239.813 156.726 240.935 151.995 237.886 150.795C236.98 150.543 236.036 150.466 235.102 150.569C227.84 150.626 222.125 144.478 215.326 141.888C210.974 140.338 206.251 140.223 201.831 141.559C197.411 142.895 193.521 145.614 190.717 149.327L199.256 149.744C200.059 149.699 200.856 149.915 201.53 150.359C203.402 151.918 201.075 154.913 201.339 157.354C201.681 160.526 205.835 161.203 208.965 161.524C212.096 161.844 216.068 164.424 214.562 167.225C198.826 172.721 182.814 156.482 166.288 158.481C162.105 158.987 158.156 160.653 154.072 161.701C129.126 168.1 103.337 151.025 77.8541 154.641C72.1889 155.621 66.621 157.11 61.2163 159.091C57.748 160.245 54.1303 161.493 51.6103 164.171C49.0903 166.849 48.1311 171.429 50.5185 174.229C43.9383 174.779 37.3142 174.14 30.954 172.343C32.6739 173.313 34.1047 174.734 35.0963 176.457C36.0878 178.181 36.6035 180.143 36.5892 182.138C26.315 183.837 16.3129 186.93 6.85192 191.332C8.61771 194.31 10.6801 197.095 13.0068 199.646L0 208.119C4.39432 209.241 6.6663 215.317 4.11084 219.112C8.66726 217.056 11.4911 211.739 16.3634 210.661C19.5555 209.955 22.8034 211.279 25.8315 212.523C28.8597 213.767 32.1879 214.973 35.3226 214.039C38.4574 213.106 40.7695 208.985 38.7776 206.359C52.1763 202.395 66.0236 200.201 79.9763 199.832C81.0527 199.695 82.1443 199.905 83.0965 200.432C84.9128 201.71 84.4349 204.47 84.337 206.709C84.2392 208.948 85.9604 211.891 87.9342 210.882C85.6121 212.924 87.5972 216.768 89.8251 218.915C92.053 221.062 94.7382 224.024 93.3743 226.817C93.0183 227.546 92.4145 228.13 92.072 228.865C91.061 231.036 92.6662 233.567 94.5596 235.009C96.453 236.451 98.7723 237.459 100.088 239.455C101.403 241.452 100.806 244.946 98.4536 245.225L91.7687 236.619C89.4848 239.02 87.919 242.029 87.253 245.296C94.3417 251.172 95.408 263.132 89.4733 270.201C86.4406 273.814 82.1277 276.009 78.3636 278.827C74.5994 281.645 71.1164 285.658 71.1259 290.402C71.1422 298.599 70.4817 306.213 73.5108 313.813C79.0965 327.825 85.5454 341.467 92.8193 354.659C94.7294 358.123 97.1981 361.92 101.068 362.516C96.1773 350.444 91.775 338.185 87.8607 325.738C90.4102 325.748 93.3564 325.953 94.8509 328.047C96.0885 329.781 95.8226 332.139 96.2072 334.244C96.6963 336.283 97.5119 338.227 98.6215 339.999L121.975 382.179C123.91 385.676 126.131 389.429 129.831 390.845C132.197 391.75 134.933 391.58 137.111 392.883C138.817 393.905 139.967 395.718 141.707 396.681C146.626 399.402 153.467 394.183 158.064 397.432C159.379 398.361 160.215 399.837 161.427 400.9C165.673 404.629 172.638 402.135 177.539 404.916C180.698 406.708 182.336 410.293 184.021 413.542C188.241 421.68 195.07 429.652 204.116 430.3C206.957 430.504 209.859 429.957 212.636 430.598C215.414 431.239 218.148 433.697 217.702 436.549C216.938 441.44 219.321 446.794 218.681 451.703C217.515 460.644 205.007 464.574 203.933 473.527C203.697 475.487 204.065 477.51 203.605 479.429C203.041 481.781 201.299 483.696 200.68 486.033C199.507 490.463 202.637 494.871 206.076 497.851C209.514 500.832 213.615 503.401 215.495 507.573C217.482 511.982 216.506 517.124 217.152 521.927C218.563 532.414 227.496 540.188 236.689 545.2C239.489 546.727 242.497 548.206 244.31 550.855C246.676 554.313 246.44 558.872 247.23 563.004C249.165 573.122 257.566 581.46 257.805 591.765C257.974 599.089 253.959 605.733 251.561 612.644C249.312 619.265 248.498 626.301 249.175 633.27C249.852 640.239 252.003 646.978 255.482 653.027C257.276 656.099 259.422 658.996 260.692 662.326C262.957 668.269 262.222 675.025 264.31 681.034C267.071 688.979 274.658 695.541 273.932 703.932C277.376 711.185 284.982 714.748 292.63 716.907L306.337 720.776C308.962 721.517 311.704 722.263 314.377 721.727C317.049 721.191 319.6 718.94 319.531 716.179C312.809 714.642 305.872 713.007 300.331 708.854C294.79 704.701 290.994 697.305 293.096 690.651C294.071 687.566 296.145 684.003 294.174 681.454C293.045 679.994 290.98 679.613 289.707 678.281C287.721 676.204 288.403 672.714 289.831 670.209C291.259 667.704 293.323 665.466 293.899 662.632C294.189 661.047 293.995 659.409 293.342 657.939C292.689 656.469 291.608 655.237 290.244 654.407C292.786 653.434 295.097 651.93 297.029 649.993C298.813 647.927 299.637 644.742 298.233 642.394C302.401 642.93 307.322 643.192 310.058 639.959C312.243 637.378 312.093 633.518 311.229 630.231C310.366 626.944 308.907 623.751 308.861 620.35C318.476 620.812 328.112 620.48 337.673 619.359C336.291 614.637 333.149 610.647 328.914 608.235C333.244 607.492 337.189 602.235 338.557 598.004C339.925 593.772 339.577 589.162 338.731 584.792C338.406 583.667 338.362 582.478 338.601 581.331C339.089 579.755 340.616 578.794 342.028 577.971L363.523 565.454C364.806 564.802 365.968 563.932 366.96 562.881C369.212 560.199 368.879 556.15 367.725 552.827C366.572 549.504 364.725 546.38 364.281 542.886C362.953 532.437 373.984 524.941 377.706 515.105C379.167 511.245 379.465 507.049 379.748 502.925C380.051 498.495 380.074 493.35 376.72 490.495C373.504 487.759 368.48 488.369 365.115 485.824C362.03 483.49 360.966 478.958 357.596 477.073C354.536 475.362 350.698 476.45 347.295 475.645C341.301 474.228 337.53 467.224 331.409 466.576C327.956 466.21 324.047 467.921 321.217 465.882C318.723 464.085 318.623 460.474 318.148 457.409C317.316 452.646 315.065 448.256 311.697 444.83C308.329 441.404 304.007 439.107 299.312 438.248C295.752 437.669 291.876 437.889 288.847 435.905C285.78 433.896 284.373 430.135 281.964 427.352C278.081 422.868 271.965 421.275 266.236 419.91L242.933 414.355C238.796 413.369 233.464 412.846 231.244 416.52C230.587 417.919 230.122 419.403 229.862 420.93C229.03 423.692 227.356 426.115 225.08 427.852C222.805 429.589 220.045 430.549 217.197 430.595C215.244 427.217 212.08 424.735 208.365 423.666C206.002 422.998 203.473 422.924 201.219 421.942C199.992 421.334 198.899 420.479 198.009 419.429C197.119 418.379 196.45 417.155 196.042 415.834C195.634 414.512 195.497 413.12 195.638 411.742C195.779 410.365 196.196 409.031 196.864 407.823C198.207 405.398 198.726 402.591 198.34 399.837C197.954 397.083 196.685 394.534 194.728 392.584C190.766 388.976 185.033 388.105 179.719 388.466C178.328 385.386 180.655 381.912 183.162 379.675C185.67 377.437 188.715 375.237 189.261 371.896C190.12 366.64 183.506 362.647 178.484 364.215C173.462 365.782 170.256 370.728 168.137 375.603C166.922 378.401 165.888 381.346 163.971 383.705C162.053 386.064 158.965 387.753 156.044 386.996C151.909 385.924 150.312 380.943 149.396 376.716C148.169 371.044 146.933 365.294 147.191 359.494C147.448 353.693 149.377 347.737 153.595 343.81C160.469 337.412 171.014 338.039 180.291 339.06C178.099 336.556 178.641 332.336 180.986 329.979C182.224 328.864 183.712 328.071 185.32 327.671C186.928 327.27 188.608 327.273 190.215 327.68C193.01 328.27 195.529 329.797 197.364 332.014C200.001 335.273 200.75 339.674 202.743 343.373C204.736 347.072 209.216 350.227 212.884 348.243C216.051 346.529 216.554 342.075 215.766 338.523C214.977 334.971 213.303 331.517 213.589 327.888C214.133 320.963 221.213 316.795 227.46 313.943C233.707 311.091 240.861 307.255 241.851 300.381C241.885 299.036 242.135 297.704 242.592 296.44C243.285 295.324 244.248 294.406 245.389 293.773C263.622 281.555 282.158 269.188 302.997 262.512C304.081 262.165 304.209 262.551 305.314 262.279C306.86 261.373 305.835 258.866 304.353 257.856C302.87 256.846 300.889 256.072 300.512 254.301C300.236 253 300.992 251.722 301.189 250.406C301.671 247.171 297.855 244.185 294.892 245.478C293.218 243.23 296.53 240.618 299.208 239.87C307.251 237.626 315.506 236.259 323.835 235.791C324.796 235.636 325.781 235.806 326.637 236.274C328.036 237.257 327.857 239.51 326.866 240.913C325.875 242.315 324.333 243.196 323.097 244.382C321.747 245.716 320.785 247.399 320.314 249.25C319.844 251.1 319.883 253.045 320.429 254.874C324.777 257.117 329.504 259.425 334.319 258.635C339.135 257.845 343.409 252.359 341.146 247.977C339.038 243.897 332.706 242.977 331.617 238.505C330.343 233.269 337.652 228.612 336.006 223.484C335.284 221.238 333.077 219.916 331.383 218.294C329.382 216.306 328.021 213.751 327.478 210.964C326.936 208.177 327.237 205.289 328.343 202.679C325.584 203.171 322.748 202.985 320.074 202.137C317.4 201.288 314.966 199.802 312.976 197.803C309.3 194.041 306.367 188.108 301.148 188.276C296.358 188.43 292.232 194.097 287.753 192.368C286.652 191.943 285.49 191.077 284.422 191.584C284.072 191.815 283.779 192.123 283.563 192.485C283.348 192.847 283.217 193.254 283.18 193.676C282.041 199.193 283.999 205.48 281.034 210.248C277.806 215.436 270.341 216.156 266.429 220.834C264.305 223.374 263.482 226.796 261.53 229.474C259.577 232.152 255.434 233.854 253.091 231.521C254.243 229.121 254.557 226.395 253.983 223.791C253.409 221.186 251.981 218.855 249.931 217.18C247.756 215.741 245.412 214.585 242.952 213.738C240.204 212.559 237.59 211.081 235.156 209.332C233.936 208.586 232.945 207.511 232.293 206.227C231.778 204.619 231.847 202.877 232.489 201.316C233.677 197.862 235.773 194.803 238.55 192.469C241.327 190.135 244.681 188.615 248.248 188.072C251.367 187.641 254.998 187.793 257.062 185.383C258.155 184.108 258.728 182.18 260.313 181.662C261.327 181.456 262.38 181.587 263.315 182.037L274.958 186.192C276.257 186.787 277.687 187.027 279.105 186.888C279.809 186.792 280.45 186.43 280.901 185.874C281.352 185.318 281.579 184.61 281.537 183.891C281.165 181.931 278.19 180.99 278.46 179.013C278.612 178.372 278.952 177.793 279.435 177.352C283.637 172.817 288.775 169.28 294.483 166.995C300.191 164.71 306.326 163.732 312.45 164.132C313.919 166.579 311.595 169.477 309.661 171.567C307.727 173.656 306.173 177.389 308.512 178.997C309.47 179.493 310.536 179.736 311.612 179.705C314.479 180.098 317.264 180.955 319.863 182.242C323.887 184.018 327.833 185.96 331.702 188.07C331.36 185.483 331.034 182.758 332.001 180.34C332.968 177.921 335.716 176.024 338.116 176.966C340.429 177.874 341.616 180.98 344.08 181.264C347.368 181.644 348.665 176.719 347.291 173.667C345.918 170.614 343.2 168.059 342.973 164.712C342.82 162.454 343.667 159.653 341.888 158.286C341.255 157.875 340.537 157.62 339.79 157.54L295.373 149.252C292.736 148.76 288.925 149.137 288.808 151.854C288.743 153.37 290.079 154.87 289.487 156.265C288.856 157.753 286.781 157.617 285.27 158.143C282.926 158.96 281.749 161.782 281.974 164.286C282.387 166.773 283.337 169.137 284.756 171.208C281.867 169.983 277.493 169.758 274.604 168.533Z" fill="#3F3D56"/>
<path d="M239.164 130.302C236.363 129.363 233.345 129.319 230.519 130.177C227.693 131.035 225.195 132.754 223.365 135.1C222.634 136.076 222.019 137.422 222.632 138.48C223.509 139.995 225.746 139.397 227.395 138.855C229.819 137.977 232.457 137.913 234.919 138.673C236.467 139.212 237.853 140.164 239.408 140.683C240.165 141.004 240.994 141.11 241.806 140.99C242.618 140.869 243.382 140.527 244.017 140C245.084 138.896 245.151 137.18 245.153 135.635C245.227 135.117 245.186 134.59 245.034 134.091C244.881 133.591 244.62 133.133 244.271 132.749C243.648 132.383 242.949 132.174 242.23 132.137C240.621 131.835 239.166 130.973 238.117 129.7" fill="#3F3D56"/>
<path d="M255.18 125.781C254.553 125.746 253.928 125.876 253.365 126.157C252.802 126.438 252.319 126.861 251.964 127.386C251.609 127.911 251.393 128.519 251.337 129.153C251.28 129.787 251.386 130.425 251.643 131.006C253.568 131.538 255.579 131.671 257.556 131.397C258.542 131.241 259.461 130.794 260.196 130.11C260.932 129.426 261.451 128.537 261.689 127.555C259.362 127.984 256.96 127.519 254.952 126.25" fill="#3F3D56"/>
<path d="M308.914 118.23C303.674 119.359 298.585 121.112 293.751 123.452C296.03 124.34 297.967 125.947 299.277 128.036C300.587 130.125 301.201 132.585 301.027 135.054C300.823 136.002 300.846 136.986 301.096 137.923C301.653 139.291 303.267 139.805 304.685 140.156C307.234 140.943 309.896 141.287 312.557 141.175C313.889 141.105 315.182 140.698 316.32 139.993C317.458 139.288 318.404 138.307 319.073 137.138C319.459 136.028 319.912 134.943 320.429 133.89C323.829 128.639 333.931 134.988 337.582 129.913C338.868 128.125 338.75 125.434 340.427 124.017C341.294 123.4 342.299 123.011 343.351 122.885C350.693 121.406 358.109 120.335 365.567 119.677C369.1 119.366 373.706 118.079 373.735 114.483C360.426 111.833 346.626 113.715 334.481 119.837C330.106 122.06 324.318 126.734 320.103 123.788C318.525 122.685 318.603 119.715 316.431 118.474C314.21 117.206 311.271 117.722 308.914 118.23Z" fill="#3F3D56"/>
<path d="M352.438 126.482L358.685 127.7C357.535 127.648 356.388 127.846 355.319 128.279C354.25 128.713 353.285 129.373 352.488 130.215C351.69 131.057 351.079 132.061 350.695 133.161C350.311 134.262 350.163 135.433 350.261 136.596C356.111 138.577 362.489 136.649 368.652 136.912C374.815 137.176 381.985 141.639 380.933 147.802C380.615 149.666 379.554 151.528 380.106 153.334C380.493 154.6 381.594 155.499 382.215 156.665C383.511 159.094 382.475 162.168 380.84 164.377C379.204 166.586 377.006 168.348 375.571 170.695C372 176.534 374.029 184.081 376.156 190.604C376.771 193.068 377.906 195.368 379.484 197.343C382.635 200.74 387.77 201.036 392.369 201.104C395.717 201.153 399.551 200.986 401.668 198.356C404.431 194.923 402.499 189.566 404.318 185.537C405.971 181.878 410.181 180.308 413.995 179.194C420.983 177.154 428.105 175.42 434.711 172.339C442.915 168.513 450.582 162.551 459.598 162.058C462.128 161.92 464.72 162.223 467.157 161.52C469.594 160.817 471.908 158.681 471.724 156.119C471.566 153.93 469.74 152.323 468.313 150.673C466.885 149.023 465.765 146.485 467.076 144.74L490.71 140.264C489.035 135.634 487.73 129.537 491.579 126.524C492.968 125.437 494.828 125.002 496.011 123.688C498.026 121.448 497.013 117.589 494.686 115.684C492.359 113.778 489.213 113.336 486.233 113.085C475.87 112.213 465.448 112.789 455.065 113.366C434.768 114.494 414.472 115.622 394.175 116.75C390.089 116.978 385.372 116.631 381.625 118.044C378.452 119.241 376.197 121.437 372.568 122.209C365.87 123.633 358.499 122.669 352.438 126.482Z" fill="#3F3D56"/>
<path d="M464.359 176.554C463.722 176.452 463.071 176.601 462.54 176.972C462.189 177.364 461.98 177.865 461.948 178.394C461.545 180.726 462.025 183.126 463.293 185.115C463.939 186.09 464.831 186.872 465.875 187.38C466.92 187.888 468.08 188.103 469.234 188.003C472.047 187.639 474.121 185.206 476.707 184.018C480.693 182.19 497.62 179.339 485.911 172.925C481.875 170.714 479.268 172.665 476.087 174.121C472.469 175.998 468.414 176.839 464.359 176.554Z" fill="#3F3D56"/>
<path d="M566.921 122.861C565.554 123.428 564.41 124.437 563.668 125.732C563.326 126.39 563.247 127.156 563.446 127.871C563.646 128.586 564.109 129.196 564.74 129.575C565.25 129.763 565.792 129.85 566.335 129.832L571.894 130C574.256 130.072 577.206 130.582 577.841 132.89C578.312 134.603 577.257 136.805 578.53 138.03C579.076 138.459 579.733 138.718 580.421 138.778C582.253 139.255 584.165 139.317 586.023 138.961C590.068 137.861 587.943 135.358 589.217 133.129C591.166 129.718 590.829 131.783 594.263 129.828C596.8 128.384 600.078 125.766 597.961 122.086C594.279 115.688 572.354 120.113 566.921 122.861Z" fill="#3F3D56"/>
<path d="M676.654 119.645L673.425 120.081C666.145 121.066 658.824 122.06 651.813 124.277C654.848 125.494 658.032 126.286 661.278 126.632C663.065 126.721 664.839 126.977 666.58 127.396C669.677 128.331 672.797 130.745 675.789 129.508C677.644 128.742 678.25 126.783 679.786 125.745C680.847 125.029 684.872 123.868 685.322 123.145C688.959 117.297 679.449 119.266 676.654 119.645Z" fill="#3F3D56"/>
<path d="M690.829 134.522C686.517 136.967 682.516 139.938 678.916 143.369C677.399 144.814 675.85 146.612 675.987 148.719C676.17 151.518 679.111 153.142 681.659 154.236L691.979 158.666C693.231 156.877 692.085 154.407 690.791 152.649C689.498 150.89 687.96 148.856 688.532 146.74C689.184 144.326 692.087 143.503 694.522 143.087C698.489 142.409 709.191 142.463 707.905 135.981C706.39 128.343 694.812 132.265 690.829 134.522Z" fill="#3F3D56"/>
<path d="M688.754 566.782C687.772 569.667 687.679 573.064 689.378 575.582C691.285 578.408 695.102 579.461 698.404 578.744C701.692 577.857 704.622 575.947 706.783 573.281C708.759 571.049 710.385 568.521 711.603 565.787C713.303 561.527 714.502 557.078 715.175 552.533L718.38 535.474C719.096 531.662 719.068 519.973 712.157 523.781C710.269 524.822 705.898 533.036 703.92 535.365C700.354 539.563 699.882 543.636 698.005 548.722C695.654 555.093 690.928 560.402 688.754 566.782Z" fill="#3F3D56"/>
<path d="M1053.76 654.077C1051.49 653.183 1049.3 652.123 1047.19 650.908C1045.07 656.808 1043.95 663.026 1043.86 669.304L1059.33 660.426C1061.66 659.09 1064.3 657.235 1064.25 654.523C1064.27 654.188 1064.2 653.854 1064.05 653.555C1063.9 653.256 1063.67 653.004 1063.39 652.825C1063.05 652.685 1062.67 652.641 1062.31 652.696C1060.01 652.89 1057.92 654.035 1055.76 654.831C1053.59 655.627 1051.06 656.048 1049.08 654.866" fill="#3F3D56"/>
<path d="M1135.38 659.348C1133.68 659.817 1132.02 660.421 1130.42 661.154C1126.87 662.986 1124.45 666.465 1121.26 668.878C1118.2 671.187 1114.52 672.455 1110.9 673.688C1109.84 674.64 1110.33 676.559 1111.48 677.396C1112.72 678.112 1114.15 678.436 1115.57 678.327C1119.32 678.411 1123.28 678.448 1126.57 676.61C1128.42 675.391 1130.15 673.996 1131.75 672.443C1135.59 669.19 1140.21 667.044 1144.78 664.97C1146.44 664.333 1147.98 663.401 1149.32 662.216C1152.19 659.347 1152.39 654.921 1148.25 653.945C1144.91 653.156 1138.57 658.303 1135.38 659.348Z" fill="#3F3D56"/>
<path d="M1171.45 635.461C1171.63 633.486 1171.37 631.495 1170.69 629.638C1170.01 627.78 1168.91 626.104 1167.5 624.736C1167.46 628.686 1167.34 632.894 1165.15 636.16C1163.59 638.487 1161.14 640.059 1159.43 642.276C1157.72 644.492 1156.96 648.006 1158.96 649.951C1160.25 650.94 1161.81 651.486 1163.42 651.507C1167.41 651.984 1172.03 652.249 1174.84 649.324C1176.36 647.727 1177.11 645.363 1178.97 644.189C1179.67 643.893 1180.29 643.443 1180.79 642.872C1181.56 641.631 1180.33 639.996 1178.96 639.549C1177.58 639.102 1176.06 639.312 1174.68 638.887C1173.29 638.463 1172.03 636.885 1172.74 635.608" fill="#3F3D56"/>
<path d="M1107.35 490.65C1105.25 491.167 1103.08 491.296 1100.94 491.033C1097.39 490.37 1094.62 487.654 1091.75 485.426C1084.93 480.158 1076.63 477.22 1068.06 477.033C1060.26 476.884 1052.39 479.027 1044.73 477.532C1045.23 480.354 1047.61 482.471 1050.15 483.729C1052.7 484.987 1055.5 485.62 1058.05 486.853C1062.14 488.846 1065.39 492.268 1067.19 496.49C1068.01 498.437 1068.53 500.555 1069.78 502.254C1072.32 505.728 1077.15 506.491 1081.41 506.207C1086.96 505.837 1092.76 504.217 1097.93 506.315C1101.88 507.92 1104.71 511.428 1108.01 514.155C1111.31 516.883 1115.96 518.907 1119.75 516.939C1115.81 515.647 1112.38 513.113 1109.97 509.707C1107.55 506.301 1106.28 502.201 1106.32 498.007C1110.04 498.353 1120.74 498.219 1120.17 491.816C1119.68 486.389 1110.54 490.064 1107.35 490.65Z" fill="#3F3D56"/>
<path d="M1058.73 534.803C1059.39 531.133 1063 527.892 1061.87 524.34C1061.09 521.883 1058.29 520.671 1055.74 520.61C1053.2 520.55 1050.7 521.318 1048.16 521.39C1046.5 521.301 1044.84 521.325 1043.19 521.462C1038.14 522.303 1035.03 527.669 1030.27 529.577C1027.38 530.737 1024.13 530.515 1021.12 531.317C1014.29 533.137 1009.97 539.681 1005.19 544.957C997.479 553.444 987.43 559.387 976.346 562.015C972.463 562.927 968.288 563.51 965.202 566.068C961.114 569.454 960.108 575.26 959.199 580.532C956.686 595.092 952.846 609.385 947.729 623.226L963.946 625.325C967.029 625.725 970.224 626.115 973.195 625.189C975.354 624.363 977.399 623.259 979.279 621.903C986.501 617.356 994.585 614.398 1003.01 613.219C1007.25 612.627 1011.71 612.519 1015.69 614.12C1019.68 615.72 1023.1 619.35 1023.43 623.683C1025.15 623.14 1026.99 623.081 1028.74 623.514C1030.5 623.946 1032.1 624.854 1033.39 626.139C1035.93 628.763 1037.59 632.129 1038.14 635.762C1038.57 638.012 1039 640.707 1041.05 641.651C1042.73 642.421 1044.66 641.592 1046.5 641.443C1052.73 640.937 1057.91 648.308 1064.04 647.039C1070.61 645.678 1072.22 635.697 1078.63 633.698C1082.32 632.549 1087.48 633.945 1089.25 630.472C1090.8 627.411 1087.7 623.878 1088.02 620.45C1088.41 616.229 1093.32 614.437 1097.11 612.636C1110.16 606.427 1116.35 588.616 1110.03 575.48C1106.28 567.697 1098.91 561.571 1097.55 553.021C1096.5 546.443 1099.06 538.772 1094.92 533.594C1092.82 530.96 1089.25 529.506 1088 526.363C1087.21 524.385 1087.53 522.14 1087.11 520.05C1086.68 517.96 1084.88 515.774 1082.85 516.316C1076.94 517.888 1075.06 536.394 1071.89 540.891C1067.08 547.726 1057.21 543.224 1058.73 534.803Z" fill="#3F3D56"/>
<path d="M949.522 497.642C947.503 497.068 945.299 496.503 943.364 497.323C941.429 498.143 940.3 501.023 941.852 502.452C953.999 501.972 966.22 501.496 978.264 503.169C992.14 505.096 1005.87 509.869 1019.81 508.465C1011.85 506.083 1003.76 504.179 995.573 502.763L981.93 500.12C978.269 499.343 974.571 498.763 970.85 498.384C963.067 497.732 957.175 499.818 949.522 497.642Z" fill="#3F3D56"/>
<path d="M961.682 454.747C960.674 454.661 959.425 454.588 958.903 455.467C958.405 456.307 958.975 457.417 958.707 458.358C958.341 459.645 956.679 459.974 955.37 459.799C954.06 459.624 952.644 459.204 951.484 459.844C950.896 460.252 950.454 460.842 950.224 461.526C949.994 462.21 949.99 462.951 950.211 463.637C950.685 465.001 951.452 466.241 952.457 467.268C954.172 469.46 956.127 471.448 958.284 473.194C962.459 476.319 968.115 477.825 970.744 482.36C971.115 483.24 971.685 484.018 972.408 484.632C973.67 485.442 975.317 484.826 976.676 484.196L981.439 481.989C982.298 481.675 983.064 481.147 983.667 480.453C984.755 478.956 984.086 476.826 983.173 475.213C982.259 473.6 981.09 471.931 981.286 470.081C981.636 466.784 985.817 465.523 987.536 462.701C989.269 459.857 988.141 456.193 988.341 452.856C988.575 448.953 990.993 443.877 987.102 440.961C983.795 438.483 980.635 440.773 978.26 443.509C973.254 449.278 970.886 455.526 961.682 454.747Z" fill="#3F3D56"/>
<path d="M990.599 396.437C992.226 399.594 995.616 401.479 997.39 404.554C999.312 407.887 999.093 412.193 1001.18 415.424C1003.32 418.739 1007.62 420.498 1008.82 424.269C1010.13 428.384 1007.16 433.387 1009.53 436.983C1009.97 437.571 1010.53 438.06 1011.17 438.418C1011.81 438.776 1012.51 438.995 1013.24 439.063C1013.96 439.131 1014.69 439.045 1015.39 438.811C1016.08 438.576 1016.71 438.199 1017.25 437.703C1018.25 436.6 1018.79 435.145 1018.74 433.648C1018.7 432.151 1018.08 430.731 1017.02 429.69C1015.62 428.393 1013.6 427.833 1012.43 426.318C1011.82 425.444 1011.41 424.44 1011.24 423.384C1010.6 420.336 1010.71 417.177 1011.54 414.178C1011.85 413.417 1011.93 412.578 1011.77 411.77C1011.24 410.216 1009.17 410.105 1007.71 409.384C1004.4 407.747 1004.48 403.013 1005.06 399.326C1004.67 401.781 996.052 397.606 995.149 396.216C993.355 393.454 994.331 388.126 993.976 385.074C990.104 386.966 988.611 392.576 990.599 396.437Z" fill="#3F3D56"/>
<path d="M903.734 445.02C902.143 443.214 899.746 441.324 897.612 442.413C895.984 443.244 895.537 445.528 896.175 447.259C896.952 448.941 898.149 450.387 899.646 451.456C904.093 455.174 908.881 458.53 912.76 462.852C919.701 470.587 923.379 481.025 930.928 488.15C932.445 489.802 934.455 490.905 936.649 491.29C938.848 491.497 941.318 490.07 941.571 487.844C941.779 486.012 940.519 484.371 939.287 483.013C936.355 479.778 933.144 476.801 930.376 473.422C929.097 472.123 928.293 470.422 928.098 468.598C928.084 466.778 929.72 464.873 931.459 465.324C929.344 464.776 927.776 461.204 924.672 460.532C922.078 459.971 921.451 461.599 918.364 460.257C912.476 457.696 907.857 449.7 903.734 445.02Z" fill="#3F3D56"/>
<path d="M1042.07 269.125C1040.39 268.616 1038.73 268.014 1037.1 267.323C1032.73 265.993 1026.95 269.251 1027.53 273.841C1027.91 276.89 1030.71 278.946 1032.26 281.592C1034.55 285.514 1033.94 290.49 1032.74 294.883C1032.44 296.244 1031.88 297.53 1031.08 298.665C1029.97 299.864 1028.64 300.834 1027.17 301.522C1021.26 304.879 1016.06 309.363 1011.84 314.728C1011.38 315.224 1011.06 315.835 1010.91 316.498C1010.7 318.047 1012.24 319.176 1013.11 320.469C1015.04 323.34 1013.64 327.204 1013.83 330.673C1013.8 331.163 1013.9 331.653 1014.11 332.096C1014.32 332.539 1014.63 332.92 1015.03 333.204C1016.19 333.803 1017.57 332.785 1018.2 331.627C1020.29 327.785 1018.72 321.617 1022.64 319.764C1023.38 319.414 1024.28 319.266 1024.78 318.605C1025.56 317.556 1024.81 316.003 1025.2 314.749C1025.8 312.867 1028.34 312.782 1030.29 312.866C1033.65 313.008 1037 312.555 1040.2 311.528C1041.46 311.225 1042.6 310.555 1043.49 309.601C1044.66 308.116 1044.56 306.006 1044.32 304.118C1043.15 294.71 1040.21 285.616 1035.66 277.328C1039.11 277.774 1042.86 278.161 1045.83 276.339C1047.5 275.319 1049.5 272.269 1048.67 270.193C1047.36 266.91 1045 269.674 1042.07 269.125Z" fill="#3F3D56"/>
<path d="M600.175 320.871C600.587 323.114 600.993 325.476 600.268 327.637C599.543 329.797 597.262 331.602 595.108 330.94C593.436 330.426 592.471 328.722 591.284 327.423C584.683 320.198 569.792 324.381 565.714 315.442C564.05 311.794 565.181 307.423 564.046 303.572C563.33 301.346 561.905 299.425 559.995 298.109C558.085 296.793 555.798 296.158 553.494 296.303C551.392 296.611 549.346 297.23 547.422 298.141C534.53 303.377 520.995 306.809 507.191 308.344C504.567 308.506 501.972 308.985 499.46 309.77C493.792 311.854 489.919 317.182 487.163 322.62C484.407 328.057 482.372 333.944 478.677 338.774C474.793 343.851 469.351 347.406 464.275 351.252C462.319 352.53 460.691 354.26 459.524 356.301C458.423 358.592 458.485 361.256 458.57 363.803L459.608 394.735C459.741 398.714 459.909 402.835 461.665 406.395C463.858 410.841 468.19 413.753 471.196 417.681C474.263 421.717 475.86 426.704 475.718 431.797C475.654 433.845 475.454 436.267 477.027 437.553C477.983 438.182 479.103 438.509 480.243 438.491L521.509 441.916C528.768 442.518 536.812 443.508 541.551 449.116C543.788 451.763 545.585 455.568 549.011 455.852C550.48 455.974 551.91 455.363 553.38 455.244C557.088 454.947 560.346 457.801 562.402 460.944C565.513 465.735 566.926 471.456 566.407 477.169C566.07 480.755 564.974 484.24 564.737 487.835C563.838 501.51 575.271 513.391 575.493 527.095C575.623 535.156 571.849 542.687 568.17 549.834C574.108 558.955 569.245 571.102 571.61 581.765C573.853 591.882 582.172 599.802 584.245 609.956C585.194 614.604 585.248 620.325 589.291 622.719C591.065 623.596 593.031 623.995 595.001 623.878C606.884 624.021 618.631 621.309 629.282 615.965C634.28 613.45 639.461 609.695 640.334 604.106C641.038 599.599 638.784 594.558 641.078 590.632C643.781 586.006 650.707 586.372 654.685 582.815C661.139 577.044 656.106 566.038 658.721 557.726C661.071 550.254 669.162 546.285 673.172 539.579C674.75 536.695 675.883 533.582 676.53 530.35C678.368 522.625 679.511 514.747 679.947 506.813C680.054 501.992 680.405 497.18 680.997 492.396C685.321 465.158 711.878 446.919 720.5 420.753C721.323 418.254 721.71 414.925 719.518 413.511C718.217 412.882 716.743 412.726 715.342 413.068L696.32 415.5C693.957 415.802 691.452 416.084 689.283 415.089C687.113 414.094 685.558 411.311 686.709 409.197C689.939 403.263 683.293 395.764 680.341 389.683C672.389 373.308 662.92 357.737 652.061 343.18C651.366 342.431 650.931 341.472 650.821 340.45L656.22 340.632C654.398 334.002 651.39 326.746 645.037 324.32C641.457 322.953 637.492 323.426 633.673 323.637C622.732 324.243 611.003 322.569 600.175 320.871Z" fill="#3F3D56"/>
<path d="M633.682 171.445C636.544 174.527 639.753 177.796 643.895 178.333C651.211 179.282 656.472 171.611 659.821 164.947C659.945 166.646 660.717 168.229 661.975 169.359C663.232 170.489 664.874 171.077 666.552 170.998C668.358 170.69 670.082 170.007 671.615 168.991C686.111 160.959 702.347 156.703 718.866 156.606C718.708 155.337 719.018 154.053 719.738 153.003C720.457 151.953 721.535 151.21 722.763 150.917C726.122 150.242 729.147 153.187 730.767 156.245C732.388 159.304 733.398 162.849 735.972 165.138C738.546 167.427 743.53 167.328 744.546 164.013C745.523 160.83 742.253 158.116 739.536 156.239C736.819 154.363 733.955 150.89 735.785 148.12C749.664 145.005 763.63 141.878 777.833 141.259C780.251 141.344 782.66 140.923 784.91 140.023C787.076 138.945 788.798 136.499 788.215 134.125C785.116 134.863 781.87 134.649 778.891 133.51C775.912 132.371 773.335 130.358 771.489 127.727C791.196 126.079 812.156 124.673 829.621 134.075C831.717 138.637 821.035 142.433 823.893 146.548C824.805 147.86 826.631 148.014 828.214 148.044C840.35 148.272 852.557 148.496 864.556 146.638C868.942 145.959 873.371 145.001 877.773 145.551C885.106 146.468 891.378 151.43 898.593 153.047C901.529 153.705 904.822 153.728 907.297 151.996C909.772 150.264 910.836 146.321 908.807 144.07C915.6 137.32 926.874 138.993 935.835 142.224C944.796 145.456 953.285 150.668 962.77 151.388C969.571 151.905 976.467 150.05 983.187 151.229C987.41 151.97 991.341 153.875 995.468 155.045C1003.27 157.259 1011.53 156.791 1019.64 156.898C1040.32 157.18 1060.77 161.302 1079.99 169.058C1082.49 169.883 1084.78 171.255 1086.7 173.077C1088.49 175.018 1089.4 178.035 1088.2 180.396L1068.34 177.454C1070.21 181.188 1075.05 181.825 1078.98 183.113C1082.91 184.401 1086.99 188.803 1084.63 192.239C1080.37 190.864 1076.51 195.181 1074.36 199.154C1072.2 203.126 1069.58 207.883 1065.12 208.125C1061.12 208.342 1056.29 204.892 1053.68 207.972C1057.28 212.576 1060.37 217.572 1062.87 222.868C1065.45 228.305 1067.28 235.155 1063.8 240.046C1063.25 240.92 1062.42 241.572 1061.45 241.892C1058.61 242.622 1056.77 239.098 1054.73 236.962C1052.16 234.27 1048.28 233.508 1044.8 232.245C1041.33 230.983 1037.66 228.5 1037.39 224.766C1037.22 222.442 1038.43 220.282 1039.32 218.135C1040.82 214.516 1041.48 210.595 1041.24 206.677C1041.04 203.525 1040.17 200.247 1037.94 198.044C1035.71 195.842 1031.85 195.144 1029.46 197.161C1028.34 198.102 1027.44 199.607 1025.99 199.663C1023.42 199.763 1021.45 195.227 1019.39 196.775C1019.63 198.425 1019.29 200.109 1018.44 201.532C1012.28 206.964 1002.81 204.666 994.87 206.585C991.093 207.681 987.478 209.282 984.118 211.346C982.862 211.891 981.792 212.801 981.045 213.962C980.054 215.915 981.147 218.417 982.894 219.715C984.747 220.868 986.83 221.588 988.991 221.825C998.673 223.685 1008.5 226.563 1016.14 232.868C1023.78 239.174 1028.8 249.597 1026.38 259.283L1007.28 240.785C1008.01 248.552 1008.42 256.34 1008.52 264.15C1008.64 265.675 1008.44 267.209 1007.91 268.645C1006.55 271.693 1002.86 272.719 999.631 273.392C998.731 273.565 997.879 273.929 997.128 274.46C996.378 274.991 995.746 275.678 995.276 276.474C994.806 277.27 994.507 278.158 994.399 279.079C994.291 280.001 994.376 280.935 994.65 281.821C995.798 285.617 998.662 288.576 1001.28 291.525C1003.91 294.474 1006.49 297.826 1006.83 301.781C1007.17 305.737 1004.23 310.195 1000.32 309.92C997.363 309.711 995.166 307.023 993.902 304.299C992.639 301.575 991.888 298.541 989.99 296.226C984.245 289.221 971.342 292.222 966.196 284.754C964.884 286.263 963.974 288.087 963.553 290.052C963.132 292.018 963.213 294.06 963.789 295.984C966.183 294.465 969.461 295.877 971.259 298.085C973.058 300.293 973.907 303.124 975.319 305.604C977.226 308.951 980.259 311.918 980.525 315.773C980.455 317.231 980.479 318.692 980.598 320.146C981.07 322.482 983.018 324.159 984.368 326.112C987.509 330.655 987.354 336.896 985.329 342.051C983.304 347.206 979.667 351.513 976.064 355.689C969.77 362.984 963.349 370.235 955.888 376.292C953.759 378.021 951.487 379.72 950.161 382.137C948.835 384.553 948.767 387.945 950.805 389.783C949.347 389.857 946.732 390.584 945.274 390.658C944.762 384.728 944.65 378.769 944.941 372.824C939.187 370.023 932.993 377.524 933.735 383.952C934.478 390.379 939.062 395.537 942.327 401.098C944.714 405.164 946.488 409.906 945.691 414.569C944.894 419.232 940.789 423.533 936.139 423.122C928.744 422.468 925.65 411.702 918.327 410.47C917.681 410.317 917.003 410.385 916.4 410.664C915.313 411.269 915.124 412.744 915.063 414C914.763 420.164 914.504 426.573 916.877 432.256C920.348 440.569 929.316 447.552 927.435 456.377C917.301 451.6 912.031 440.076 909.639 429.007C907.247 417.937 906.848 406.317 902.559 395.852C899.303 400.084 892.458 396.586 889.483 392.146C886.662 387.937 884.925 383.067 882.189 378.802C879.452 374.536 875.26 370.716 870.246 370.481C864.989 370.235 860.431 373.893 856.421 377.349C853.125 380.191 849.74 383.144 847.813 387.073C845.009 392.789 845.742 399.528 845.607 405.911C845.461 412.812 844.019 420.093 839.38 425.145C834.742 430.196 826.18 431.956 821.064 427.403C818.393 425.026 817.1 421.475 815.948 418.066C810.395 401.634 805.771 384.894 802.097 367.928C801.237 371.8 797.884 376.791 794.68 374.51C793.962 373.897 793.379 373.136 792.972 372.278C786.996 362.008 775.93 355.849 764.748 352.155C753.567 348.462 741.803 346.739 730.746 342.68C724.55 340.404 718.631 337.415 713.107 333.771C711.699 335.869 710.877 338.314 710.728 340.847C710.578 343.38 711.108 345.907 712.26 348.16C714.712 352.563 720.263 355.111 725.014 353.572C727.469 352.777 729.542 351.048 731.978 350.195C734.415 349.341 737.684 349.76 738.75 352.14C739.769 354.418 738.228 357.174 738.993 359.552C740.157 363.175 745.545 363.454 747.429 366.75C748.831 369.203 747.678 372.46 745.676 374.439C743.675 376.418 741.004 377.503 738.561 378.881C730.633 383.351 724.995 390.982 718.066 396.919C711.138 402.856 701.362 407.19 693.105 403.382C695.073 393.276 683.201 385.857 681.017 375.797C680.298 372.486 680.671 368.968 679.644 365.741C678.159 361.069 674.071 357.857 670.717 354.317C666.65 349.976 663.481 344.853 661.398 339.25C659.315 333.647 658.359 327.678 658.588 321.695C658.769 317.537 659.523 313.311 658.589 309.259C657.654 305.206 654.345 301.284 650.245 301.468C640.88 301.887 629.081 302.593 624.168 294.498C622.414 291.609 621.651 287.378 624.186 285.164C625.975 283.603 628.615 283.75 630.964 283.984L652.066 286.089C657.001 286.581 662.336 286.987 666.571 284.371C670.806 281.755 672.641 274.81 668.72 271.732C665.854 269.484 660.721 269.605 659.888 266.03C659.194 263.052 662.445 259.673 660.689 257.184C659.43 255.4 656.6 255.895 654.885 257.232C653.17 258.57 651.925 260.526 650.006 261.539C646.639 263.316 642.615 261.625 638.993 260.476C635.37 259.327 630.514 259.229 628.757 262.641C626.791 266.456 630.5 271.456 628.549 275.279C625.971 280.334 617.239 277.456 613.618 281.804C609.462 286.794 616.445 294.233 615.044 300.607C613.255 301.506 611.267 301.918 609.273 301.805C607.28 301.691 605.35 301.055 603.671 299.959C602.02 298.821 600.705 297.25 599.864 295.413C599.023 293.577 598.689 291.544 598.898 289.53C599.244 286.663 600.719 283.736 599.731 281.027C598.932 278.836 596.763 277.532 594.747 276.402L574.241 264.912C572.337 268.493 574.744 272.933 577.754 275.623C580.764 278.312 584.535 280.338 586.512 283.878C587.763 286.33 588.043 289.175 587.296 291.83C586.549 294.485 584.83 296.75 582.491 298.164C582.198 298.369 581.864 298.507 581.513 298.569C581.162 298.631 580.802 298.616 580.458 298.523C580.131 298.328 579.846 298.069 579.619 297.76C579.393 297.451 579.23 297.1 579.14 296.726C575.522 287.338 570.09 278.081 561.405 273.177C552.72 268.273 540.241 269.281 534.546 277.543C533.193 279.505 532.285 281.741 531.107 283.816C524.846 294.838 511.425 300.058 498.885 299.717C497.658 299.786 496.438 299.495 495.37 298.879C493.343 297.46 493.434 294.448 493.745 291.971L495.061 281.457C495.325 279.346 495.708 277.012 497.356 275.694C499.679 273.836 503.031 275.009 505.989 274.966C508.23 274.859 510.385 274.057 512.161 272.667C513.938 271.276 515.249 269.366 515.919 267.195C516.517 265.002 516.513 262.685 515.908 260.495C515.303 258.304 514.12 256.322 512.486 254.762C511.131 253.471 509.311 251.849 510.027 250.108C510.313 249.627 510.699 249.214 511.159 248.9C511.618 248.586 512.14 248.379 512.688 248.291C518.002 246.726 523.617 246.316 528.842 244.47C534.068 242.624 539.135 238.846 540.373 233.378C540.752 231.702 540.925 229.671 542.409 228.841C543.154 228.522 543.954 228.356 544.763 228.353C547.596 227.944 550.175 226.475 551.993 224.235C553.812 221.994 554.737 219.145 554.586 216.247C557.091 214.473 560.599 215.778 563.022 217.665C565.445 219.552 567.584 222.046 570.532 222.859C576.025 224.375 581.334 219.443 587.028 219.42C589.422 219.411 591.9 220.269 594.153 219.446C596.436 218.612 597.8 216.307 599.553 214.604C601.305 212.901 604.38 211.863 605.998 213.697L604.62 203.347C607.396 204.058 610.289 204.159 613.106 203.642C615.922 203.126 618.598 202.004 620.952 200.353L603.141 194.251C602.521 194.095 601.949 193.784 601.476 193.349C600.181 191.935 601.467 189.732 602.52 188.125C605.039 184.28 605.462 177.947 601.32 176.033C598.492 174.727 595.247 176.295 592.533 177.829L579.534 185.178C579.121 187.684 582.143 189.104 584.015 190.791C585.148 191.812 585.95 193.157 586.315 194.649C586.681 196.14 586.593 197.709 586.063 199.149C585.533 200.589 584.586 201.832 583.346 202.716C582.106 203.6 580.631 204.084 579.116 204.103C579.972 205.231 580.567 206.54 580.856 207.933C581.145 209.326 581.122 210.768 580.788 212.15L572.042 212.788C571.06 212.988 570.04 212.786 569.205 212.227C568.269 211.384 568.396 209.908 568.179 208.659C567.656 205.643 564.744 203.53 561.772 202.988C558.8 202.446 555.76 203.141 552.817 203.826C551.567 204.282 550.195 204.25 548.968 203.736C548.264 203.273 547.729 202.588 547.445 201.787C546.154 198.615 547.36 194.887 549.433 192.174C551.505 189.462 554.341 187.479 556.889 185.22C562.981 179.8 567.458 172.76 569.812 164.896C574.627 162.851 579.611 160.072 584.426 158.026C591.849 154.215 600.173 152.58 608.463 153.304L624.769 153.62C629.596 153.713 634.554 153.833 639.018 155.699C643.482 157.565 647.404 161.602 647.713 166.487C647.806 167.041 647.758 167.609 647.576 168.138C647.393 168.668 647.08 169.142 646.667 169.515C646.037 169.864 645.323 170.027 644.606 169.986C640.103 170.147 638.184 171.284 633.682 171.445Z" fill="#3F3D56"/>
<path d="M503.716 223.261C504.353 222.649 504.811 221.872 505.041 221.013C505.27 220.155 505.262 219.249 505.017 218.395C503.467 217.788 501.78 217.633 500.147 217.945C498.515 218.258 497.001 219.027 495.775 220.164C494.809 221.155 493.977 222.271 493.3 223.483C491.157 227.028 489.262 231.261 490.503 235.224C490.605 235.656 490.79 236.063 491.048 236.421C491.307 236.78 491.633 237.082 492.009 237.311C492.565 237.538 493.165 237.633 493.763 237.59C496.124 237.587 498.482 237.44 500.825 237.149C502.264 236.971 503.935 236.559 504.491 235.202C505.222 233.417 503.453 231.398 503.968 229.538C504.308 228.706 504.822 227.96 505.475 227.35C505.799 227.043 506.048 226.664 506.202 226.243C506.357 225.821 506.412 225.369 506.364 224.922C506.156 224.049 504.838 223.554 504.363 224.312" fill="#3F3D56"/>
<path d="M515.955 207.171C513.858 206.683 511.697 206.545 509.556 206.763C509.083 206.749 508.614 206.857 508.193 207.078C507.785 207.382 507.489 207.817 507.353 208.311C506.901 209.783 507.012 211.373 507.664 212.765C508.316 214.157 509.462 215.249 510.872 215.823C511.641 216.002 512.377 216.302 513.055 216.712C514.864 218.136 513.711 221.046 514.053 223.343C514.438 225.921 516.9 228.086 516.448 230.654C516.093 232.676 513.962 234.278 514.305 236.303C514.664 238.424 517.319 239.062 519.435 239.231C520.661 239.449 521.923 239.302 523.069 238.809C524.217 238.013 525.034 236.813 525.362 235.442C526.228 232.828 526.592 230.069 526.434 227.316C526.425 226.064 526.114 224.833 525.53 223.73C524.893 222.855 524.187 222.035 523.418 221.278C519.365 216.496 523.633 209.365 515.955 207.171Z" fill="#3F3D56"/>
<path d="M1021.22 451.783C1024.5 451.302 1027.89 451.166 1031.25 451.382C1031.99 451.367 1032.72 451.474 1033.38 451.691C1034.02 451.991 1034.49 452.419 1034.7 452.907C1035.41 454.356 1035.23 455.923 1034.21 457.294C1033.19 458.666 1031.39 459.741 1029.18 460.307C1027.98 460.484 1026.83 460.779 1025.76 461.183C1022.93 462.586 1024.74 465.453 1024.2 467.716C1023.6 470.256 1019.74 472.389 1020.45 474.919C1021 476.912 1024.34 478.49 1023.8 480.485C1023.24 482.574 1019.08 483.202 1015.77 483.37C1013.84 483.584 1011.87 483.44 1010.07 482.954C1008.27 482.169 1006.99 480.987 1006.48 479.636C1005.12 477.061 1004.55 474.343 1004.8 471.631C1004.81 470.397 1005.3 469.184 1006.21 468.097C1007.21 467.236 1008.32 466.428 1009.52 465.681C1015.87 460.971 1009.19 453.944 1021.22 451.783Z" fill="#3F3D56"/>
<path d="M998.794 515.65C1004.27 515.65 1008.7 511.147 1008.7 505.593C1008.7 500.038 1004.27 495.535 998.794 495.535C993.321 495.535 988.884 500.038 988.884 505.593C988.884 511.147 993.321 515.65 998.794 515.65Z" fill="#E84D3D"/>
<path d="M1021.26 480.784C1026.73 480.784 1031.16 476.281 1031.16 470.727C1031.16 465.172 1026.73 460.669 1021.26 460.669C1015.78 460.669 1011.35 465.172 1011.35 470.727C1011.35 476.281 1015.78 480.784 1021.26 480.784Z" fill="#E84D3D"/>
<path d="M950.567 511.627C955.675 511.627 959.816 507.124 959.816 501.57C959.816 496.015 955.675 491.512 950.567 491.512C945.459 491.512 941.318 496.015 941.318 501.57C941.318 507.124 945.459 511.627 950.567 511.627Z" fill="#E84D3D"/>
<path d="M1062.21 491.512C1067.69 491.512 1072.12 487.009 1072.12 481.455C1072.12 475.9 1067.69 471.397 1062.21 471.397C1056.74 471.397 1052.31 475.9 1052.31 481.455C1052.31 487.009 1056.74 491.512 1062.21 491.512Z" fill="#E84D3D"/>
<path d="M932.73 480.784C938.203 480.784 942.639 476.582 942.639 471.397C942.639 466.213 938.203 462.01 932.73 462.01C927.257 462.01 922.82 466.213 922.82 471.397C922.82 476.582 927.257 480.784 932.73 480.784Z" fill="#E84D3D"/>
<line y1="-0.5" x2="123.761" y2="-0.5" transform="matrix(0.992872 0.119189 -0.115757 0.993278 934.712 470.056)" stroke="#47D1DA"/>
<g clip-path="url(#clip0_174_1927)">
<path d="M904.953 504.958C904.895 504.721 904.704 504.545 904.504 504.411C904.305 504.278 904.086 504.171 903.916 504.001C903.746 503.83 903.631 503.571 903.71 503.341C903.806 503.061 904.126 502.95 904.406 502.874C901.846 502.592 899.274 502.445 896.7 502.433C896.642 502.353 896.561 502.293 896.468 502.263C896.375 502.232 896.275 502.233 896.182 502.264C896.089 502.296 896.008 502.356 895.951 502.438C895.894 502.519 895.864 502.617 895.864 502.717V511.198H896.793V505.988C899.001 505.994 901.209 505.999 903.417 506.005C903.774 506.006 904.146 506.003 904.468 505.843C904.789 505.682 905.042 505.313 904.953 504.958Z" fill="#CCCCCC"/>
<path d="M910.086 520.157V517.298H912.224C912.602 517.298 912.977 517.221 913.326 517.073C913.676 516.924 913.994 516.707 914.261 516.432C914.529 516.158 914.741 515.832 914.886 515.474C915.031 515.115 915.105 514.731 915.105 514.343L898.838 514.343C898.838 513.989 898.975 513.65 899.219 513.4C899.464 513.15 899.795 513.009 900.14 513.009H911.48V512.677C911.48 511.545 910.715 510.627 909.772 510.627H895.638C893.462 510.627 891.473 512.064 890.447 514.343H888.171C887.978 514.343 887.792 514.42 887.653 514.558L886.214 515.988C886.108 516.093 886.035 516.229 886.004 516.378C885.973 516.526 885.987 516.681 886.042 516.821C886.098 516.962 886.193 517.083 886.316 517.167C886.439 517.252 886.584 517.298 886.732 517.298H888.52V520.157H880.303C880.198 520.157 880.094 520.179 879.998 520.223C879.902 520.268 879.817 520.332 879.747 520.412L878.094 522.318C877.999 522.428 877.937 522.564 877.915 522.709C877.893 522.855 877.913 523.003 877.972 523.137C878.03 523.271 878.126 523.385 878.246 523.465C878.366 523.545 878.507 523.587 878.65 523.587H883.761C883.887 523.587 884.011 523.62 884.121 523.683C884.232 523.745 884.324 523.836 884.391 523.945L885.288 525.416C885.356 525.527 885.395 525.654 885.401 525.785C885.406 525.916 885.379 526.046 885.322 526.163C885.264 526.28 885.178 526.38 885.072 526.453C884.965 526.526 884.843 526.57 884.715 526.58L873.63 527.459C873.495 527.47 873.366 527.518 873.256 527.599C873.145 527.679 873.059 527.789 873.005 527.917L870.658 533.482C870.609 533.598 870.589 533.724 870.599 533.85C870.61 533.976 870.651 534.097 870.719 534.203C870.786 534.309 870.879 534.395 870.987 534.455C871.096 534.515 871.217 534.547 871.34 534.547H908.378C909.286 534.547 910.191 534.462 911.083 534.294C917.696 533.043 922.449 527.05 922.449 520.157L910.086 520.157ZM891.309 517.298H907.297V520.157H891.309V517.298ZM914.548 523.397C914.548 523.797 914.471 524.194 914.321 524.564C914.172 524.934 913.953 525.27 913.676 525.553C913.4 525.836 913.072 526.061 912.711 526.214C912.35 526.367 911.964 526.446 911.573 526.446H887.591C887.591 525.637 887.904 524.862 888.462 524.29C889.02 523.718 889.777 523.397 890.565 523.397L914.548 523.397Z" fill="#3F3D56"/>
<path d="M910.643 524.922H890.751C890.628 524.922 890.51 524.972 890.423 525.061C890.336 525.151 890.287 525.272 890.287 525.398V526.542H911.108V525.398C911.108 525.272 911.059 525.151 910.972 525.061C910.885 524.972 910.767 524.922 910.643 524.922ZM894.655 525.112H896.849V526.351H894.655V525.112ZM894.469 526.351H892.276V525.112H894.469V526.351ZM897.035 525.112H899.228V526.351H897.035V525.112ZM899.414 525.112H901.608V526.351H899.414V525.112ZM901.794 525.112H903.987V526.351H901.794V525.112ZM904.173 525.112H906.367V526.351H904.173V525.112ZM906.553 525.112H908.746V526.351H906.553V525.112ZM890.472 525.398C890.473 525.322 890.502 525.25 890.554 525.196C890.607 525.142 890.677 525.112 890.751 525.112H892.09V526.351H890.472V525.398ZM910.922 526.351H908.932V525.112H910.643C910.717 525.112 910.788 525.142 910.841 525.196C910.893 525.25 910.922 525.322 910.922 525.398V526.351Z" fill="#3F3D56"/>
<path d="M909.342 511.484H908.134V516.63H909.342V511.484Z" fill="#3F3D56"/>
<path d="M887.126 534.832H867.606C867.532 534.832 867.461 534.802 867.409 534.748C867.356 534.695 867.327 534.622 867.327 534.546C867.327 534.471 867.356 534.398 867.409 534.344C867.461 534.291 867.532 534.261 867.606 534.261H887.126C887.2 534.261 887.271 534.291 887.323 534.344C887.376 534.398 887.405 534.471 887.405 534.546C887.405 534.622 887.376 534.695 887.323 534.748C887.271 534.802 887.2 534.832 887.126 534.832Z" fill="#CCCCCC"/>
<path d="M878.481 536.547H870.394C870.32 536.547 870.25 536.517 870.197 536.464C870.145 536.41 870.116 536.337 870.116 536.262C870.116 536.186 870.145 536.113 870.197 536.06C870.25 536.006 870.32 535.976 870.394 535.976H878.481C878.555 535.976 878.626 536.006 878.679 536.06C878.731 536.113 878.76 536.186 878.76 536.262C878.76 536.337 878.731 536.41 878.679 536.464C878.626 536.517 878.555 536.547 878.481 536.547Z" fill="#CCCCCC"/>
<path d="M914.176 534.832H894.655C894.581 534.832 894.51 534.802 894.458 534.748C894.406 534.695 894.377 534.622 894.377 534.546C894.377 534.471 894.406 534.398 894.458 534.344C894.51 534.291 894.581 534.261 894.655 534.261H914.176C914.25 534.261 914.321 534.291 914.373 534.344C914.425 534.398 914.455 534.471 914.455 534.546C914.455 534.622 914.425 534.695 914.373 534.748C914.321 534.802 914.25 534.832 914.176 534.832Z" fill="#CCCCCC"/>
<path d="M902.185 536.547H882.664C882.59 536.547 882.519 536.517 882.467 536.464C882.415 536.41 882.385 536.337 882.385 536.262C882.385 536.186 882.415 536.113 882.467 536.06C882.519 536.006 882.59 535.976 882.664 535.976H902.185C902.259 535.976 902.33 536.006 902.382 536.06C902.434 536.113 902.464 536.186 902.464 536.262C902.464 536.337 902.434 536.41 902.382 536.464C902.33 536.517 902.259 536.547 902.185 536.547Z" fill="#CCCCCC"/>
<path d="M887.126 538.072H867.606C867.532 538.072 867.461 538.042 867.409 537.988C867.357 537.935 867.327 537.862 867.327 537.786C867.327 537.711 867.357 537.638 867.409 537.585C867.461 537.531 867.532 537.501 867.606 537.501H887.126C887.2 537.501 887.271 537.531 887.323 537.585C887.375 537.638 887.405 537.711 887.405 537.786C887.405 537.862 887.375 537.935 887.323 537.988C887.271 538.042 887.2 538.072 887.126 538.072Z" fill="#CCCCCC"/>
<path d="M898.838 539.787H890.751C890.677 539.787 890.606 539.757 890.554 539.704C890.502 539.65 890.472 539.578 890.472 539.502C890.472 539.426 890.502 539.354 890.554 539.3C890.606 539.246 890.677 539.216 890.751 539.216H898.838C898.912 539.216 898.983 539.246 899.036 539.3C899.088 539.354 899.117 539.426 899.117 539.502C899.117 539.578 899.088 539.65 899.036 539.704C898.983 539.757 898.912 539.787 898.838 539.787Z" fill="#CCCCCC"/>
<path d="M881.363 539.787H873.276C873.202 539.787 873.131 539.757 873.079 539.704C873.026 539.65 872.997 539.578 872.997 539.502C872.997 539.426 873.026 539.354 873.079 539.3C873.131 539.246 873.202 539.216 873.276 539.216H881.363C881.437 539.216 881.508 539.246 881.56 539.3C881.612 539.354 881.642 539.426 881.642 539.502C881.642 539.578 881.612 539.65 881.56 539.704C881.508 539.757 881.437 539.787 881.363 539.787Z" fill="#CCCCCC"/>
<path d="M914.176 538.072H894.655C894.581 538.072 894.51 538.042 894.458 537.988C894.406 537.935 894.377 537.862 894.377 537.786C894.377 537.711 894.406 537.638 894.458 537.585C894.51 537.531 894.581 537.501 894.655 537.501H914.176C914.25 537.501 914.32 537.531 914.373 537.585C914.425 537.638 914.454 537.711 914.454 537.786C914.454 537.862 914.425 537.935 914.373 537.988C914.32 538.042 914.25 538.072 914.176 538.072Z" fill="#CCCCCC"/>
<path d="M922.542 539.787H903.021C902.947 539.787 902.876 539.757 902.824 539.704C902.772 539.65 902.742 539.578 902.742 539.502C902.742 539.426 902.772 539.354 902.824 539.3C902.876 539.246 902.947 539.216 903.021 539.216H922.542C922.616 539.216 922.686 539.246 922.739 539.3C922.791 539.354 922.82 539.426 922.82 539.502C922.82 539.578 922.791 539.65 922.739 539.704C922.686 539.757 922.616 539.787 922.542 539.787Z" fill="#CCCCCC"/>
</g>
<g clip-path="url(#clip1_174_1927)">
<path d="M1054.26 373.54C1054.2 373.304 1054.01 373.127 1053.81 372.994C1053.61 372.861 1053.39 372.754 1053.22 372.583C1053.05 372.413 1052.94 372.153 1053.01 371.923C1053.11 371.644 1053.43 371.532 1053.71 371.457C1051.15 371.174 1048.58 371.027 1046 371.016C1045.95 370.935 1045.86 370.875 1045.77 370.845C1045.68 370.815 1045.58 370.815 1045.49 370.847C1045.39 370.878 1045.31 370.939 1045.26 371.02C1045.2 371.101 1045.17 371.199 1045.17 371.299V379.781H1046.1V374.571C1048.31 374.576 1050.51 374.582 1052.72 374.587C1053.08 374.588 1053.45 374.586 1053.77 374.425C1054.09 374.265 1054.35 373.895 1054.26 373.54Z" fill="#CCCCCC"/>
<path d="M1059.39 388.739V385.88H1061.53C1061.91 385.88 1062.28 385.804 1062.63 385.655C1062.98 385.507 1063.3 385.289 1063.57 385.015C1063.83 384.74 1064.05 384.415 1064.19 384.056C1064.33 383.698 1064.41 383.314 1064.41 382.926L1048.14 382.926C1048.14 382.572 1048.28 382.233 1048.52 381.982C1048.77 381.732 1049.1 381.592 1049.44 381.592H1060.78V381.26C1060.78 380.127 1060.02 379.209 1059.08 379.209H1044.94C1042.77 379.209 1040.78 380.647 1039.75 382.926H1037.47C1037.28 382.926 1037.1 383.003 1036.96 383.141L1035.52 384.57C1035.41 384.676 1035.34 384.811 1035.31 384.96C1035.28 385.109 1035.29 385.263 1035.35 385.404C1035.4 385.544 1035.5 385.665 1035.62 385.75C1035.74 385.835 1035.89 385.88 1036.04 385.88H1037.82V388.739H1029.61C1029.5 388.739 1029.4 388.762 1029.3 388.806C1029.21 388.85 1029.12 388.914 1029.05 388.995L1027.4 390.901C1027.3 391.011 1027.24 391.146 1027.22 391.292C1027.2 391.437 1027.22 391.586 1027.28 391.72C1027.33 391.854 1027.43 391.968 1027.55 392.047C1027.67 392.127 1027.81 392.17 1027.95 392.17H1033.06C1033.19 392.17 1033.31 392.203 1033.43 392.265C1033.54 392.328 1033.63 392.418 1033.7 392.528L1034.59 393.998C1034.66 394.109 1034.7 394.236 1034.7 394.367C1034.71 394.498 1034.68 394.629 1034.63 394.746C1034.57 394.863 1034.48 394.963 1034.38 395.036C1034.27 395.109 1034.15 395.152 1034.02 395.162L1022.93 396.042C1022.8 396.052 1022.67 396.101 1022.56 396.181C1022.45 396.262 1022.36 396.372 1022.31 396.499L1019.96 402.064C1019.91 402.18 1019.89 402.307 1019.9 402.433C1019.91 402.559 1019.95 402.68 1020.02 402.785C1020.09 402.891 1020.18 402.978 1020.29 403.038C1020.4 403.098 1020.52 403.129 1020.64 403.129H1057.68C1058.59 403.129 1059.49 403.045 1060.39 402.876C1067 401.625 1071.75 395.633 1071.75 388.739L1059.39 388.739ZM1040.61 385.88H1056.6V388.739H1040.61V385.88ZM1063.85 391.979C1063.85 392.38 1063.77 392.776 1063.63 393.146C1063.48 393.516 1063.26 393.852 1062.98 394.136C1062.7 394.419 1062.38 394.643 1062.02 394.797C1061.65 394.95 1061.27 395.029 1060.88 395.029H1036.89C1036.89 394.22 1037.21 393.444 1037.77 392.872C1038.32 392.3 1039.08 391.979 1039.87 391.979L1063.85 391.979Z" fill="#3F3D56"/>
<path d="M1059.95 393.504H1040.06C1039.93 393.504 1039.81 393.554 1039.73 393.644C1039.64 393.733 1039.59 393.854 1039.59 393.98V395.124H1060.41V393.98C1060.41 393.854 1060.36 393.733 1060.28 393.644C1060.19 393.554 1060.07 393.504 1059.95 393.504ZM1043.96 393.695H1046.15V394.933H1043.96V393.695ZM1043.77 394.933H1041.58V393.695H1043.77V394.933ZM1046.34 393.695H1048.53V394.933H1046.34V393.695ZM1048.72 393.695H1050.91V394.933H1048.72V393.695ZM1051.1 393.695H1053.29V394.933H1051.1V393.695ZM1053.48 393.695H1055.67V394.933H1053.48V393.695ZM1055.86 393.695H1058.05V394.933H1055.86V393.695ZM1039.78 393.98C1039.78 393.905 1039.81 393.832 1039.86 393.778C1039.91 393.725 1039.98 393.695 1040.06 393.695H1041.39V394.933H1039.78V393.98ZM1060.23 394.933H1058.24V393.695H1059.95C1060.02 393.695 1060.09 393.725 1060.14 393.778C1060.2 393.832 1060.23 393.905 1060.23 393.98V394.933Z" fill="#3F3D56"/>
<path d="M1058.65 380.067H1057.44V385.213H1058.65V380.067Z" fill="#3F3D56"/>
<path d="M1036.43 403.414H1016.91C1016.84 403.414 1016.76 403.384 1016.71 403.331C1016.66 403.277 1016.63 403.204 1016.63 403.129C1016.63 403.053 1016.66 402.98 1016.71 402.927C1016.76 402.873 1016.84 402.843 1016.91 402.843H1036.43C1036.5 402.843 1036.57 402.873 1036.63 402.927C1036.68 402.98 1036.71 403.053 1036.71 403.129C1036.71 403.204 1036.68 403.277 1036.63 403.331C1036.57 403.384 1036.5 403.414 1036.43 403.414Z" fill="#CCCCCC"/>
<path d="M1027.79 405.13H1019.7C1019.62 405.13 1019.55 405.1 1019.5 405.046C1019.45 404.992 1019.42 404.92 1019.42 404.844C1019.42 404.768 1019.45 404.696 1019.5 404.642C1019.55 404.589 1019.62 404.559 1019.7 404.559H1027.79C1027.86 404.559 1027.93 404.589 1027.98 404.642C1028.03 404.696 1028.06 404.768 1028.06 404.844C1028.06 404.92 1028.03 404.992 1027.98 405.046C1027.93 405.1 1027.86 405.13 1027.79 405.13Z" fill="#CCCCCC"/>
<path d="M1063.48 403.414H1043.96C1043.89 403.414 1043.81 403.384 1043.76 403.331C1043.71 403.277 1043.68 403.204 1043.68 403.129C1043.68 403.053 1043.71 402.98 1043.76 402.927C1043.81 402.873 1043.89 402.843 1043.96 402.843H1063.48C1063.55 402.843 1063.62 402.873 1063.68 402.927C1063.73 402.98 1063.76 403.053 1063.76 403.129C1063.76 403.204 1063.73 403.277 1063.68 403.331C1063.62 403.384 1063.55 403.414 1063.48 403.414Z" fill="#CCCCCC"/>
<path d="M1051.49 405.13H1031.97C1031.89 405.13 1031.82 405.1 1031.77 405.046C1031.72 404.992 1031.69 404.92 1031.69 404.844C1031.69 404.768 1031.72 404.696 1031.77 404.642C1031.82 404.589 1031.89 404.559 1031.97 404.559H1051.49C1051.56 404.559 1051.63 404.589 1051.69 404.642C1051.74 404.696 1051.77 404.768 1051.77 404.844C1051.77 404.92 1051.74 404.992 1051.69 405.046C1051.63 405.1 1051.56 405.13 1051.49 405.13Z" fill="#CCCCCC"/>
<path d="M1036.43 406.654H1016.91C1016.84 406.654 1016.77 406.624 1016.71 406.571C1016.66 406.517 1016.63 406.445 1016.63 406.369C1016.63 406.293 1016.66 406.221 1016.71 406.167C1016.77 406.114 1016.84 406.084 1016.91 406.083H1036.43C1036.5 406.084 1036.57 406.114 1036.63 406.167C1036.68 406.221 1036.71 406.293 1036.71 406.369C1036.71 406.445 1036.68 406.517 1036.63 406.571C1036.57 406.624 1036.5 406.654 1036.43 406.654Z" fill="#CCCCCC"/>
<path d="M1048.14 408.37H1040.06C1039.98 408.37 1039.91 408.34 1039.86 408.286C1039.81 408.233 1039.78 408.16 1039.78 408.084C1039.78 408.009 1039.81 407.936 1039.86 407.882C1039.91 407.829 1039.98 407.799 1040.06 407.799H1048.14C1048.22 407.799 1048.29 407.829 1048.34 407.882C1048.39 407.936 1048.42 408.009 1048.42 408.084C1048.42 408.16 1048.39 408.233 1048.34 408.286C1048.29 408.34 1048.22 408.37 1048.14 408.37Z" fill="#CCCCCC"/>
<path d="M1030.67 408.37H1022.58C1022.51 408.37 1022.43 408.34 1022.38 408.286C1022.33 408.233 1022.3 408.16 1022.3 408.084C1022.3 408.009 1022.33 407.936 1022.38 407.882C1022.43 407.829 1022.51 407.799 1022.58 407.799H1030.67C1030.74 407.799 1030.81 407.829 1030.86 407.882C1030.92 407.936 1030.95 408.009 1030.95 408.084C1030.95 408.16 1030.92 408.233 1030.86 408.286C1030.81 408.34 1030.74 408.37 1030.67 408.37Z" fill="#CCCCCC"/>
<path d="M1063.48 406.654H1043.96C1043.89 406.654 1043.81 406.624 1043.76 406.571C1043.71 406.517 1043.68 406.445 1043.68 406.369C1043.68 406.293 1043.71 406.221 1043.76 406.167C1043.81 406.114 1043.89 406.083 1043.96 406.083H1063.48C1063.55 406.084 1063.62 406.114 1063.68 406.167C1063.73 406.221 1063.76 406.293 1063.76 406.369C1063.76 406.445 1063.73 406.517 1063.68 406.571C1063.62 406.624 1063.55 406.654 1063.48 406.654Z" fill="#CCCCCC"/>
<path d="M1071.85 408.37H1052.33C1052.25 408.37 1052.18 408.34 1052.13 408.286C1052.08 408.233 1052.05 408.16 1052.05 408.084C1052.05 408.009 1052.08 407.936 1052.13 407.882C1052.18 407.829 1052.25 407.799 1052.33 407.799H1071.85C1071.92 407.799 1071.99 407.829 1072.04 407.882C1072.1 407.936 1072.12 408.009 1072.12 408.084C1072.12 408.16 1072.1 408.233 1072.04 408.286C1071.99 408.34 1071.92 408.37 1071.85 408.37Z" fill="#CCCCCC"/>
</g>
<path d="M1132.15 438.949C1135.34 438.876 1138.75 440.576 1139.65 443.486L1122.37 442.815C1122.7 442.6 1123.03 442.388 1123.36 442.178C1126.01 440.497 1128.97 439.022 1132.15 438.949Z" fill="#F2F2F2"/>
<path d="M1157.76 448.203C1155.46 449.717 1153.22 451.332 1150.66 452.383C1144.32 454.986 1137.02 453.772 1130.35 452.081C1123.68 450.389 1116.87 448.24 1110.03 449.112C1106.15 449.606 1102.49 451.053 1098.75 452.138C1095 453.224 1090.97 453.95 1087.19 452.976C1083.42 452.002 1080.01 448.911 1079.91 445.182C1108.43 440.155 1134.88 440.006 1157.76 448.203Z" fill="#F2F2F2"/>
<path d="M1119.46 423.121H1137.32C1137.58 423.122 1137.82 423.218 1138 423.39C1138.18 423.562 1138.28 423.794 1138.28 424.037V430.24C1138.28 430.483 1138.18 430.715 1138 430.887C1137.82 431.059 1137.58 431.155 1137.32 431.156H1119.46C1119.21 431.155 1118.96 431.059 1118.78 430.887C1118.6 430.715 1118.5 430.483 1118.5 430.24V424.037C1118.5 423.794 1118.6 423.562 1118.78 423.39C1118.96 423.218 1119.21 423.122 1119.46 423.121Z" fill="#E6E6E6"/>
<path d="M1136.5 423.121H1136.99V431.156H1136.5V423.121Z" fill="#CCCCCC"/>
<path d="M1134.41 423.121H1134.9V431.156H1134.41V423.121Z" fill="#CCCCCC"/>
<path d="M1132.32 423.121H1132.82V431.156H1132.32V423.121Z" fill="#CCCCCC"/>
<path d="M1130.23 423.121H1130.73V431.156H1130.23V423.121Z" fill="#CCCCCC"/>
<path d="M1128.15 423.121H1128.64V431.156H1128.15V423.121Z" fill="#CCCCCC"/>
<path d="M1126.06 423.121H1126.55V431.156H1126.06V423.121Z" fill="#CCCCCC"/>
<path d="M1123.97 423.121H1124.46V431.156H1123.97V423.121Z" fill="#CCCCCC"/>
<path d="M1121.88 423.121H1122.37V431.156H1121.88V423.121Z" fill="#CCCCCC"/>
<path d="M1119.79 423.121H1120.28V431.156H1119.79V423.121Z" fill="#CCCCCC"/>
<path d="M1075.6 423.121H1093.46C1093.71 423.122 1093.96 423.218 1094.14 423.39C1094.32 423.562 1094.42 423.794 1094.42 424.037V430.24C1094.42 430.483 1094.32 430.715 1094.14 430.887C1093.96 431.059 1093.71 431.155 1093.46 431.156H1075.6C1075.34 431.155 1075.1 431.059 1074.92 430.887C1074.74 430.715 1074.64 430.483 1074.63 430.24V424.037C1074.64 423.794 1074.74 423.562 1074.92 423.39C1075.1 423.218 1075.34 423.122 1075.6 423.121Z" fill="#E6E6E6"/>
<path d="M1092.64 423.121H1093.13V431.156H1092.64V423.121Z" fill="#CCCCCC"/>
<path d="M1090.55 423.121H1091.04V431.156H1090.55V423.121Z" fill="#CCCCCC"/>
<path d="M1088.46 423.121H1088.95V431.156H1088.46V423.121Z" fill="#CCCCCC"/>
<path d="M1086.37 423.121H1086.86V431.156H1086.37V423.121Z" fill="#CCCCCC"/>
<path d="M1084.28 423.121H1084.77V431.156H1084.28V423.121Z" fill="#CCCCCC"/>
<path d="M1082.19 423.121H1082.68V431.156H1082.19V423.121Z" fill="#CCCCCC"/>
<path d="M1080.1 423.121H1080.59V431.156H1080.1V423.121Z" fill="#CCCCCC"/>
<path d="M1078.01 423.121H1078.51V431.156H1078.01V423.121Z" fill="#CCCCCC"/>
<path d="M1075.93 423.121H1076.42V431.156H1075.93V423.121Z" fill="#CCCCCC"/>
<path d="M1095.5 423.121H1113.36C1113.62 423.122 1113.86 423.218 1114.04 423.39C1114.22 423.562 1114.32 423.794 1114.32 424.037V430.24C1114.32 430.483 1114.22 430.715 1114.04 430.887C1113.86 431.059 1113.62 431.155 1113.36 431.156H1095.5C1095.25 431.155 1095 431.059 1094.82 430.887C1094.64 430.715 1094.54 430.483 1094.54 430.24V424.037C1094.54 423.794 1094.64 423.562 1094.82 423.39C1095 423.218 1095.25 423.122 1095.5 423.121Z" fill="#E6E6E6"/>
<path d="M1112.54 423.121H1113.03V431.156H1112.54V423.121Z" fill="#CCCCCC"/>
<path d="M1110.45 423.121H1110.94V431.156H1110.45V423.121Z" fill="#CCCCCC"/>
<path d="M1108.36 423.121H1108.85V431.156H1108.36V423.121Z" fill="#CCCCCC"/>
<path d="M1106.27 423.121H1106.77V431.156H1106.27V423.121Z" fill="#CCCCCC"/>
<path d="M1104.19 423.121H1104.68V431.156H1104.19V423.121Z" fill="#CCCCCC"/>
<path d="M1102.1 423.121H1102.59V431.156H1102.1V423.121Z" fill="#CCCCCC"/>
<path d="M1100.01 423.121H1100.5V431.156H1100.01V423.121Z" fill="#CCCCCC"/>
<path d="M1097.92 423.121H1098.41V431.156H1097.92V423.121Z" fill="#CCCCCC"/>
<path d="M1095.83 423.121H1096.32V431.156H1095.83V423.121Z" fill="#CCCCCC"/>
<path d="M1079.53 423.707H1097.39C1097.64 423.707 1097.89 423.804 1098.07 423.975C1098.25 424.147 1098.35 424.38 1098.35 424.623V430.825C1098.35 431.068 1098.25 431.301 1098.07 431.473C1097.89 431.644 1097.64 431.741 1097.39 431.741H1079.53C1079.27 431.741 1079.03 431.644 1078.85 431.473C1078.67 431.301 1078.57 431.068 1078.57 430.825V424.623C1078.57 424.38 1078.67 424.147 1078.85 423.975C1079.03 423.804 1079.27 423.707 1079.53 423.707Z" fill="#E84D3D"/>
<path d="M1096.57 423.707H1097.06V431.741H1096.57V423.707Z" fill="#3F3D56"/>
<path d="M1094.48 423.707H1094.97V431.741H1094.48V423.707Z" fill="#3F3D56"/>
<path d="M1092.39 423.707H1092.88V431.741H1092.39V423.707Z" fill="#3F3D56"/>
<path d="M1090.3 423.707H1090.79V431.741H1090.3V423.707Z" fill="#3F3D56"/>
<path d="M1088.21 423.707H1088.7V431.741H1088.21V423.707Z" fill="#3F3D56"/>
<path d="M1086.12 423.707H1086.62V431.741H1086.12V423.707Z" fill="#3F3D56"/>
<path d="M1084.03 423.707H1084.53V431.741H1084.03V423.707Z" fill="#3F3D56"/>
<path d="M1081.95 423.707H1082.44V431.741H1081.95V423.707Z" fill="#3F3D56"/>
<path d="M1079.86 423.707H1080.35V431.741H1079.86V423.707Z" fill="#3F3D56"/>
<path d="M1102.01 423.707H1119.87C1120.13 423.707 1120.37 423.804 1120.55 423.975C1120.73 424.147 1120.83 424.38 1120.84 424.623V430.825C1120.83 431.068 1120.73 431.301 1120.55 431.473C1120.37 431.644 1120.13 431.741 1119.87 431.741H1102.01C1101.76 431.741 1101.51 431.644 1101.33 431.473C1101.15 431.301 1101.05 431.068 1101.05 430.825V424.623C1101.05 424.38 1101.15 424.147 1101.33 423.975C1101.51 423.804 1101.76 423.707 1102.01 423.707Z" fill="#E84D3D"/>
<path d="M1119.05 423.707H1119.55V431.741H1119.05V423.707Z" fill="#3F3D56"/>
<path d="M1116.96 423.707H1117.46V431.741H1116.96V423.707Z" fill="#3F3D56"/>
<path d="M1114.88 423.707H1115.37V431.741H1114.88V423.707Z" fill="#3F3D56"/>
<path d="M1112.79 423.707H1113.28V431.741H1112.79V423.707Z" fill="#3F3D56"/>
<path d="M1110.7 423.707H1111.19V431.741H1110.7V423.707Z" fill="#3F3D56"/>
<path d="M1108.61 423.707H1109.1V431.741H1108.61V423.707Z" fill="#3F3D56"/>
<path d="M1106.52 423.707H1107.01V431.741H1106.52V423.707Z" fill="#3F3D56"/>
<path d="M1104.43 423.707H1104.92V431.741H1104.43V423.707Z" fill="#3F3D56"/>
<path d="M1102.34 423.707H1102.83V431.741H1102.34V423.707Z" fill="#3F3D56"/>
<path d="M1125.97 423.707H1143.83C1144.09 423.707 1144.33 423.804 1144.51 423.975C1144.69 424.147 1144.8 424.38 1144.8 424.623V430.825C1144.8 431.068 1144.69 431.301 1144.51 431.473C1144.33 431.644 1144.09 431.741 1143.83 431.741H1125.97C1125.72 431.741 1125.47 431.644 1125.29 431.473C1125.11 431.301 1125.01 431.068 1125.01 430.825V424.623C1125.01 424.38 1125.11 424.147 1125.29 423.975C1125.47 423.804 1125.72 423.707 1125.97 423.707Z" fill="#E84D3D"/>
<path d="M1143.01 423.707H1143.51V431.741H1143.01V423.707Z" fill="#3F3D56"/>
<path d="M1140.92 423.707H1141.42V431.741H1140.92V423.707Z" fill="#3F3D56"/>
<path d="M1138.84 423.707H1139.33V431.741H1138.84V423.707Z" fill="#3F3D56"/>
<path d="M1136.75 423.707H1137.24V431.741H1136.75V423.707Z" fill="#3F3D56"/>
<path d="M1134.66 423.707H1135.15V431.741H1134.66V423.707Z" fill="#3F3D56"/>
<path d="M1132.57 423.707H1133.06V431.741H1132.57V423.707Z" fill="#3F3D56"/>
<path d="M1130.48 423.707H1130.97V431.741H1130.48V423.707Z" fill="#3F3D56"/>
<path d="M1128.39 423.707H1128.88V431.741H1128.39V423.707Z" fill="#3F3D56"/>
<path d="M1126.3 423.707H1126.79V431.741H1126.3V423.707Z" fill="#3F3D56"/>
<path d="M1063.8 432.216C1063.83 432.114 1063.87 432.015 1063.92 431.92L1066.11 427.423C1066.27 427.093 1066.53 426.814 1066.85 426.618C1067.17 426.423 1067.54 426.319 1067.93 426.319H1076.92C1077.3 426.319 1077.68 426.423 1078 426.618C1078.32 426.814 1078.58 427.093 1078.74 427.423L1080.54 431.12H1131.94L1133.69 427.54C1133.85 427.21 1134.11 426.931 1134.43 426.735C1134.75 426.54 1135.12 426.436 1135.51 426.436H1144.5C1144.85 426.436 1145.19 426.521 1145.49 426.684L1147 424.11C1147.1 423.94 1147.25 423.806 1147.44 423.73C1147.63 423.653 1147.84 423.639 1148.04 423.688C1148.23 423.737 1148.41 423.847 1148.53 424.001C1148.66 424.156 1148.73 424.345 1148.73 424.54V444.755C1148.73 445.056 1148.67 445.354 1148.54 445.632C1148.42 445.911 1148.25 446.164 1148.02 446.377C1147.8 446.589 1147.53 446.758 1147.24 446.874C1146.95 446.989 1146.64 447.048 1146.32 447.048H1077.49C1077.17 447.048 1076.85 446.987 1076.56 446.869C1076.26 446.75 1075.99 446.577 1075.77 446.358L1064.13 435.017C1063.76 434.654 1063.52 434.18 1063.46 433.671C1063.4 433.163 1063.52 432.65 1063.8 432.216Z" fill="#3F3D56"/>
<path d="M1075.91 430.828H1077.04C1077.28 430.827 1077.52 430.736 1077.69 430.573C1077.86 430.411 1077.95 430.191 1077.95 429.961V428.767C1077.95 428.537 1077.86 428.316 1077.69 428.154C1077.52 427.991 1077.28 427.9 1077.04 427.9H1075.91C1075.67 427.9 1075.44 427.991 1075.27 428.154C1075.1 428.316 1075 428.537 1075 428.767V429.961C1075 430.191 1075.1 430.411 1075.27 430.573C1075.44 430.736 1075.67 430.827 1075.91 430.828Z" fill="white"/>
<path d="M1071.86 430.828H1072.99C1073.23 430.827 1073.46 430.736 1073.63 430.573C1073.8 430.411 1073.9 430.191 1073.9 429.961V428.767C1073.9 428.537 1073.8 428.316 1073.63 428.154C1073.46 427.991 1073.23 427.9 1072.99 427.9H1071.86C1071.62 427.9 1071.39 427.991 1071.22 428.154C1071.04 428.316 1070.95 428.537 1070.95 428.767V429.961C1070.95 430.191 1071.04 430.411 1071.22 430.573C1071.39 430.736 1071.62 430.827 1071.86 430.828Z" fill="white"/>
<path d="M1067.8 430.828H1068.93C1069.17 430.827 1069.41 430.736 1069.58 430.573C1069.75 430.411 1069.84 430.191 1069.84 429.961V428.767C1069.84 428.537 1069.75 428.316 1069.58 428.154C1069.41 427.991 1069.17 427.9 1068.93 427.9H1067.8C1067.56 427.9 1067.33 427.991 1067.16 428.154C1066.99 428.316 1066.89 428.537 1066.89 428.767V429.961C1066.89 430.191 1066.99 430.411 1067.16 430.573C1067.33 430.736 1067.56 430.827 1067.8 430.828Z" fill="white"/>
<path d="M1143.49 430.945H1144.62C1144.86 430.944 1145.1 430.853 1145.27 430.691C1145.44 430.528 1145.53 430.308 1145.53 430.078V428.884C1145.53 428.654 1145.44 428.433 1145.27 428.271C1145.1 428.108 1144.86 428.017 1144.62 428.017H1143.49C1143.25 428.017 1143.02 428.108 1142.85 428.271C1142.68 428.433 1142.58 428.654 1142.58 428.884V430.078C1142.58 430.308 1142.68 430.528 1142.85 430.691C1143.02 430.853 1143.25 430.944 1143.49 430.945Z" fill="white"/>
<path d="M1139.44 430.945H1140.57C1140.81 430.944 1141.04 430.853 1141.21 430.691C1141.38 430.528 1141.48 430.308 1141.48 430.078V428.884C1141.48 428.654 1141.38 428.433 1141.21 428.271C1141.04 428.108 1140.81 428.017 1140.57 428.017H1139.44C1139.2 428.017 1138.97 428.108 1138.8 428.271C1138.63 428.433 1138.53 428.654 1138.53 428.884V430.078C1138.53 430.308 1138.63 430.528 1138.8 430.691C1138.97 430.853 1139.2 430.944 1139.44 430.945Z" fill="white"/>
<path d="M1135.38 430.945H1136.51C1136.75 430.944 1136.99 430.853 1137.16 430.691C1137.33 430.528 1137.42 430.308 1137.42 430.078V428.884C1137.42 428.654 1137.33 428.433 1137.16 428.271C1136.99 428.108 1136.75 428.017 1136.51 428.017H1135.38C1135.14 428.017 1134.91 428.108 1134.74 428.271C1134.57 428.433 1134.47 428.654 1134.47 428.884V430.078C1134.47 430.308 1134.57 430.528 1134.74 430.691C1134.91 430.853 1135.14 430.944 1135.38 430.945Z" fill="white"/>
<path d="M1150.51 443.279C1153.69 443.206 1157.1 444.906 1158.01 447.816L1140.73 447.145C1141.06 446.93 1141.38 446.717 1141.71 446.507C1144.36 444.827 1147.32 443.351 1150.51 443.279Z" fill="#E84D3D"/>
<path d="M1140.73 447.145C1138.43 448.659 1136.19 450.275 1133.63 451.326C1127.29 453.928 1119.99 452.714 1113.32 451.023C1106.65 449.332 1099.84 447.182 1093 448.054C1089.12 448.549 1085.46 449.995 1081.71 451.081C1077.97 452.166 1073.94 452.893 1070.16 451.918C1066.38 450.944 1062.97 447.854 1062.88 444.124C1091.4 439.098 1117.84 438.949 1140.73 447.145Z" fill="#E84D3D"/>
<defs>
<linearGradient id="paint0_linear_174_1927" x1="1014" y1="323" x2="268.405" y2="610.337" gradientUnits="userSpaceOnUse">
<stop stop-color="#E84D3D" stop-opacity="0.8"/>
<stop offset="1" stop-color="#5944D7" stop-opacity="0.8"/>
</linearGradient>
<clipPath id="clip0_174_1927">
<rect width="55.4936" height="37.5479" fill="white" transform="translate(867.327 502.24)"/>
</clipPath>
<clipPath id="clip1_174_1927">
<rect width="55.4936" height="37.5479" fill="white" transform="translate(1016.63 370.823)"/>
</clipPath>
</defs>
</svg>
